<!-- Copyright 2000-2022 JetBrains s.r.o. and contributors. Use of this source code is governed by the Apache 2.0 license. -->
<svg width="16" height="16" viewBox="0 0 16 16" fill="none" xmlns="http://www.w3.org/2000/svg">
    <path fill-rule="evenodd" clip-rule="evenodd" d="M10.8537 3.85343C11.0489 4.04868 11.0489 4.36526 10.8537 4.56053C10.6584 4.7558 10.3418 4.75581 10.1466 4.56055L8.50009 2.91414L8.50009 10.5142C8.50009 10.7903 8.27623 11.0142 8.00009 11.0142C7.72394 11.0142 7.50009 10.7903 7.50009 10.5142L7.50009 2.91417L5.85355 4.56068C5.65829 4.75594 5.3417 4.75594 5.14644 4.56067C4.95118 4.36541 4.95119 4.04883 5.14645 3.85357L7.64654 1.35352L8.00008 0.999984L8.35363 1.35352L10.8537 3.85343Z" fill="#6C707E"/>
    <rect width="6.5" height="1" rx="0.5" transform="matrix(1 0 0 -1 2 14)" fill="#6C707E"/>
    <rect x="2" y="10" width="1" height="4" rx="0.5" fill="#6C707E"/>

    <path d="M15.1095 10.5202C15.5077 10.7488 15.5121 11.3216 15.1175 11.5563L10.4067 14.3581C10.0068 14.596 9.5 14.3078 9.5 13.8424L9.5 8.33631C9.5 7.87509 9.99871 7.58634 10.3987 7.81596L15.1095 10.5202Z" fill="#F2FCF3" stroke="#5FB865" stroke-linecap="round"/>

</svg>
