<!-- Copyright 2000-2022 JetBrains s.r.o. and contributors. Use of this source code is governed by the Apache 2.0 license. -->
<svg width="16" height="16" viewBox="0 0 16 16" fill="none" xmlns="http://www.w3.org/2000/svg">
	<path fill-rule="evenodd" clip-rule="evenodd" d="M10.8536 3.85343C11.0489 4.04868 11.0489 4.36526 10.8536 4.56053C10.6584 4.7558 10.3418 4.75581 10.1465 4.56055L8.50005 2.91414L8.50005 10.5142C8.50005 10.7903 8.27619 11.0142 8.00005 11.0142C7.72391 11.0142 7.50005 10.7903 7.50005 10.5142L7.50005 2.91417L5.85351 4.56068C5.65825 4.75594 5.34166 4.75594 5.1464 4.56067C4.95114 4.36541 4.95115 4.04883 5.14641 3.85357L7.6465 1.35352L8.00004 0.999984L8.35359 1.35352L10.8536 3.85343Z" fill="#CED0D6"/>
	<rect width="6.5" height="1" rx="0.5" transform="matrix(1 0 0 -1 2 14)" fill="#CED0D6"/>
	<rect x="2" y="10" width="1" height="4" rx="0.5" fill="#CED0D6"/>

	<g transform="scale(0.5, 0.5) translate(16, 14)">
		<circle cx="7.79995" cy="14.15" r="1.3" fill="#57965C"/>
		<path
				d="M7.97962 8.25128C8.20415 8.01392 8.49793 7.73622 8.8602 7.41844C9.23243 7.09036 9.52729 6.80791 9.74572 6.57075L9.74668 6.56973C9.96622 6.33799 10.1503 6.0594 10.2982 5.73275L10.2988 5.73133C10.45 5.4108 10.5268 5.0457 10.5268 4.634C10.5268 4.13537 10.4222 3.69607 10.2158 3.31349C10.0093 2.93099 9.71876 2.63442 9.34261 2.42208L9.34155 2.42149C8.96585 2.20334 8.53389 2.093 8.04277 2.093C7.53263 2.093 7.08144 2.20651 6.68653 2.43124C6.29797 2.65595 5.9944 2.97134 5.77499 3.3796C5.67273 3.57247 5.59473 3.77918 5.54126 4C5.51644 4.10252 5.49691 4.20808 5.48269 4.31671C5.44318 4.61868 5.20739 4.867 4.90285 4.867H4.77896C4.47828 4.867 4.23781 4.61717 4.24929 4.31671C4.25956 4.2093 4.27359 4.10373 4.2914 4C4.36501 3.57119 4.50313 3.17391 4.7064 2.80885C5.03226 2.23534 5.4864 1.7906 6.06642 1.47769C6.64663 1.15834 7.30949 1 8.05227 1C8.77568 1 9.4194 1.15185 9.98062 1.45842C10.5475 1.75827 10.9888 2.17975 11.3023 2.72194C11.6162 3.26467 11.7718 3.88719 11.7718 4.5865C11.7718 5.13576 11.6813 5.62465 11.4976 6.05106C11.3166 6.47121 11.0924 6.82638 10.8239 7.11469C10.567 7.39722 10.2283 7.71973 9.80882 8.08202C9.47419 8.37245 9.2138 8.61414 9.02667 8.8075C8.85057 8.98968 8.70116 9.20284 8.57871 9.44772L8.57826 9.44864C8.4595 9.6802 8.39927 9.93983 8.39927 10.2295C8.39927 10.4946 8.18437 10.7095 7.91927 10.7095H7.71977C7.42844 10.7095 7.19227 10.4733 7.19227 10.182C7.19227 9.77678 7.26749 9.41044 7.42025 9.08501C7.57001 8.76595 7.75635 8.48769 7.97962 8.25128Z" stroke="#57965C" stroke-width="1.5"/>

	</g>
</svg>
