<?xml version="1.0" encoding="iso-8859-1"?>
<!-- Generator: Adobe Illustrator 19.0.0, SVG Export Plug-In . SVG Version: 6.00 Build 0)  -->
<svg version="1.1" xmlns="http://www.w3.org/2000/svg" xmlns:xlink="http://www.w3.org/1999/xlink" x="0px" y="0px"
	 viewBox="0 0 36 36" style="enable-background:new 0 0 36 36;" xml:space="preserve">
<g id="Layer_1">
	
		<radialGradient id="XMLID_4_" cx="15.2997" cy="16.3547" r="17.994" fx="10.6023" fy="14.1873" gradientTransform="matrix(0.7632 0.7742 -2.2334 2.2015 39.8732 -31.6189)" gradientUnits="userSpaceOnUse">
		<stop  offset="0.1096" style="stop-color:#3D57A7"/>
		<stop  offset="0.2022" style="stop-color:#364F98"/>
		<stop  offset="0.3968" style="stop-color:#2A4587"/>
		<stop  offset="0.5828" style="stop-color:#233E7D"/>
		<stop  offset="0.7495" style="stop-color:#213C7A"/>
	</radialGradient>
	<path id="XMLID_1_" style="fill:url(#XMLID_4_);" d="M22.411,35h-8.822C6.636,35,1,29.364,1,22.411v-8.822
		C1,6.636,6.636,1,13.589,1h8.822C29.364,1,35,6.636,35,13.589v8.822C35,29.364,29.364,35,22.411,35z"/>
</g>
<g id="Layer_2" style="opacity:0.7;">
	<g id="Layer_1_copy">
		<g id="XMLID_15_">
			<path id="XMLID_16_" style="fill:none;" d="M3.012,12.044c0.25-0.007,0.46-0.936,0.676-0.738
				c0.145-0.377,0.069-0.639,0.046-0.928c-0.454,0.883-0.876,1.786-1.026,2.72l0.16-0.118C2.913,12.723,3.185,12.203,3.012,12.044z"
				/>
			<path id="XMLID_105_" style="fill:none;" d="M11.954,32.577c-0.051-0.008-0.113-0.022-0.17-0.033
				c0.014,0.008,0.027,0.016,0.041,0.024C11.857,32.564,11.893,32.561,11.954,32.577z"/>
			<path id="XMLID_106_" style="fill:none;" d="M4.301,9.273c-0.05,0.1-0.1,0.201-0.152,0.302C4.181,9.551,4.21,9.527,4.252,9.504
				C4.263,9.428,4.284,9.348,4.301,9.273z"/>
			<path id="XMLID_107_" style="fill:none;" d="M2.703,13.573c-0.057-0.053,0.026-0.075,0.063-0.104
				c0.005-0.011,0.009-0.023,0.014-0.034c-0.005-0.009-0.015-0.018-0.033-0.029l-0.116,0.025c-0.025,0.078-0.044,0.159-0.068,0.237
				C2.61,13.677,2.658,13.636,2.703,13.573z"/>
			<path id="XMLID_108_" style="fill:none;" d="M2.761,29.315c0.004,0.006,0.007,0.011,0.01,0.017l0.014-0.017
				C2.778,29.316,2.769,29.314,2.761,29.315z"/>
			<path id="XMLID_109_" style="fill:none;" d="M10.353,1.529c0.238,0.286,0.104,0.539,0.276,0.855
				c0.062,0.111,0.143-0.002,0.248,0.058c-0.165-0.313-0.199-0.682-0.276-0.855c0.588-0.105,0.371,0.873,0.835,1.179
				c1.966-0.962,4.099-1.383,6.321-1.365C17.271,1.225,16.72,1.268,16.148,1h-0.081l0.063,0.229C15.966,1.15,15.795,1.075,15.625,1
				h-2.736c-0.743,0-1.467,0.077-2.172,0.207c0.012,0.065,0.019,0.132,0.007,0.209L10.353,1.529z"/>
			<path id="XMLID_112_" style="fill:none;" d="M23.111,1h-5.279c0.214,0.12,0.341,0.276,0.475,0.419
				c0.637,0.025,1.278,0.072,1.926,0.164c1.423,0.222,2.828,0.62,4.171,1.168L24.39,2.792c-0.03,0.085-0.043,0.166-0.062,0.25
				c-0.105-0.035-0.219-0.078-0.332-0.12c-0.103,0.115-0.324-0.01-0.319,0.221c0.226,0.211-0.04,0.395-0.127,0.594l-0.068-0.188
				c-0.071-0.031-0.195,0.159-0.261,0.292c0.183,0.402,0.305,1.024-0.166,1.28l0.217,0.397c-0.269,0.177-0.326,0.514-0.493,0.705
				l0.165,0.053c-0.239,0.045-0.092,0.259-0.056,0.411c-0.064,0.014-0.137-0.011-0.202,0.004c-0.164,0.314,0.055,0.711-0.111,0.867
				c-0.15-0.33-0.073,0.015-0.219-0.355c0.078,0.267-0.303,0.305-0.12,0.546c-0.062,0.292-0.268,0.173-0.406,0.243
				c0.311,0.013,0.185,0.406,0.288,0.502c-0.336,0.194,0.022,0.6-0.144,0.91c0.003-0.075,0.035-0.164-0.037-0.19
				C21.75,9.331,21.944,9.4,21.891,9.521c-0.002-0.016-0.023-0.022-0.048-0.046l-0.062,0.141c0.008-0.055-0.009-0.101-0.009-0.127
				c-0.139-0.05-0.237,0.13-0.23,0.294c0.142,0.089-0.188,0.479,0.055,0.627c-0.243-0.029-0.294,0.505-0.539,0.358
				c-0.092,0.259,0.116,0.456,0.16,0.687c-0.163,0.196-0.165,0.275-0.403,0.326c0,0.119-0.061,0.255,0.08,0.305l0.128-0.227
				c-0.018,0.483-0.499,0.504-0.345,1.034c-0.077-0.106-0.136,0.108-0.207,0l0.046,0.275c-0.215-0.076-0.185-0.243-0.425-0.353
				c0.042,0.308-0.271,0.132-0.23,0.405c0.196-0.14,0.174,0.233,0.316,0.355l-0.24-0.091c0.012,0.321,0.159,0.614,0.136,1.022
				c-0.105-0.021-0.508,0.187-0.618,0.081c-0.125-0.733,0.471-1.538,0.719-2.319l0.142,0.096c0.332-0.313-0.186-0.445-0.025-0.8
				l0.176,0.167c-0.114-0.304,0.184-0.687,0.142-0.999c0.011,0.362,0.462,0.506,0.165,0.853c0.063,0.022,0.173,0.082,0.276,0.025
				c0.059-0.254,0.047-0.697-0.232-0.757c0.441-0.29-0.001-1.083,0.42-0.93c-0.037-0.072-0.104-0.059-0.208-0.038
				c0.022-0.447,0.489-0.905,0.34-1.198l0.142,0.135c0.267-0.296-0.124-0.704,0.173-1.082c0.095-0.179,0.075,0.226,0.207-0.005
				c0.02-0.482,0.139-0.99,0.3-1.386c0.18,0.242,0.082,0.463,0.13,0.819c0.404-0.322-0.162,0.276,0.241,0.146
				c0.094-0.498-0.184-0.481,0.044-0.97c-0.04-0.24-0.205,0.04-0.238,0.09c-0.076-0.265,0.154-0.477-0.125-0.62
				c0.339-0.148,0.381,0.004,0.607-0.408c-0.077-0.305-0.413-0.037-0.219-0.435c0.341-0.071-0.01-0.32,0.194-0.483
				c0,0.044-0.03,0.129,0.038,0.153c0.329-0.467-0.038-0.109,0.295-0.503c-0.598-0.277,0.415-0.889-0.041-1.157
				c0.214,0.155,0.199-0.4,0.341-0.15l0.479,0.069c-0.553-0.207-1.155-0.452-1.572-0.457l0.147-0.065
				c-1.054-0.3-2.207-0.261-3.203-0.548c0.077-0.007,0.064-0.028,0.102-0.03c-0.06-0.016-0.128-0.029-0.203-0.038
				c0.09,0.233,1.094,0.776,0.35,0.73c-0.054-0.193-0.359-0.429-0.738-0.376l0.413,0.271c-0.277-0.036-0.511-0.212-0.773-0.232
				c0.27-0.048,0.075-0.345,0.231-0.409c-0.019,0.001-0.038,0.004-0.057,0.005l-0.273,0.062c-0.024-0.028-0.05-0.045-0.074-0.07
				c-1.088,0.084-1.906-0.189-2.798,0.219l-0.27-0.02c0.125,0.209-0.565,0.146-0.754,0.331l0.079-0.112
				c-1.008,0.412-2.161,0.589-3.161,1.01c0.008,0.013,0.004,0.023,0.018,0.038c0.313,0.001,0.242,0.318,0.319,0.52L11.549,3.64
				c-0.073,0.021-0.038,0.252,0.007,0.394c0.415,0.172,0.932,0.544,0.768,1.047l0.432,0.148c-0.07,0.312,0.116,0.6,0.129,0.855
				l0.158-0.087c-0.138,0.203,0.11,0.261,0.248,0.346c-0.036,0.054-0.112,0.082-0.147,0.136c0.099,0.346,0.531,0.487,0.519,0.714
				c-0.337-0.138-0.043,0.062-0.409-0.115c0.243,0.145-0.004,0.432,0.297,0.49c0.158,0.255-0.074,0.308-0.124,0.45
				c0.231-0.197,0.408,0.171,0.555,0.172c-0.111,0.371,0.428,0.429,0.53,0.773c-0.053-0.058-0.095-0.148-0.165-0.116
				c-0.055,0.212,0.134,0.128,0.182,0.252c-0.014-0.01-0.037,0.004-0.07,0.003l0.049,0.139c-0.027-0.037-0.069-0.065-0.09-0.084
				c-0.136,0.06-0.083,0.258,0.034,0.373c0.161-0.028,0.196,0.482,0.477,0.426c-0.199,0.14,0.132,0.571-0.149,0.627
				c0.113,0.256,0.406,0.256,0.595,0.396c0.011,0.259,0.071,0.314-0.065,0.51c0.079,0.089,0.133,0.232,0.265,0.174l-0.066-0.254
				c0.324,0.368-0.014,0.705,0.466,0.995c-0.122-0.031-0.02,0.166-0.145,0.14l0.22,0.171c-0.204,0.085-0.299-0.056-0.551,0.028
				c0.247,0.2-0.102,0.288,0.119,0.457c0.044-0.241,0.284,0.052,0.472,0.043l-0.238,0.098c0.233,0.228,0.537,0.339,0.803,0.653
				c-0.084,0.058-0.237,0.481-0.387,0.485c-0.598-0.456-0.73-1.453-1.082-2.193l0.167-0.026c0.027-0.457-0.441-0.202-0.569-0.569
				l0.241-0.004c-0.286-0.14-0.341-0.623-0.587-0.824c0.255,0.258,0.685,0.054,0.71,0.515c0.068-0.03,0.183-0.056,0.213-0.172
				c-0.132-0.227-0.442-0.541-0.689-0.394c0.115-0.517-0.748-0.801-0.337-0.973c-0.08-0.031-0.121,0.032-0.18,0.112
				c-0.295-0.337-0.278-0.995-0.582-1.106l0.197,0.002c-0.014-0.406-0.573-0.434-0.624-0.917c-0.051-0.198,0.212,0.114,0.15-0.142
				c-0.325-0.366-0.589-0.822-0.746-1.225c0.299,0.058,0.386,0.286,0.661,0.514c0.065-0.511,0.072,0.314,0.28-0.056
				c-0.282-0.427-0.467-0.224-0.643-0.742c-0.196-0.14-0.118,0.173-0.111,0.228c-0.24-0.142-0.217-0.455-0.519-0.367
				c0.145-0.347,0.277-0.256,0.158-0.714c-0.266-0.172-0.325,0.257-0.459-0.169c0.197-0.287-0.231-0.229-0.193-0.485
				c0.025,0.025,0.06,0.111,0.133,0.088c-0.092-0.577-0.107-0.063-0.136-0.574c-0.627,0.202-0.314-0.933-0.829-0.823
				c0.076-0.008,0.094-0.048,0.092-0.098c-0.198,0.104-0.391,0.216-0.569,0.351l-0.05-0.051C9.63,4.077,9.179,4.411,8.491,4.879
				c-1.12,0.822-2.225,1.755-3.1,2.829c-0.112,0.267-0.22,0.533-0.314,0.793L4.956,8.379C4.507,8.994,5.024,9.095,4.745,9.742
				L4.606,9.503c0.031,0.482-0.4,1.216-0.445,1.74c0.098-0.609-0.341-0.749,0.078-1.416C4.19,9.807,4.121,9.761,4.031,9.803
				c-0.044,0.085-0.088,0.17-0.132,0.255c-0.105,0.441-0.16,1.004,0.076,1.034c-0.554,0.614-0.328,1.865-0.724,1.7
				c0.018,0.118,0.096,0.078,0.212,0.013c-0.013,0.063-0.033,0.129-0.051,0.194l0.81,0.292c0.407,0.061,0.821,0.24,1.162,0.339
				l-0.039,0.065l0.272,0.098c0.059-0.034,0.147-0.05,0.296-0.028c0.293,0.148,0.694,0.15,0.868,0.447l-0.094-0.021
				c-0.076,0.018-0.121,0.129-0.22,0.19c0.207,0.014,0.466-0.078,0.613,0.013c-0.066,0.042-0.465-0.064-0.57,0.116
				c-0.019-0.065-0.019-0.065,0.007-0.104c-0.133-0.021-0.217-0.048-0.268,0.061l0.159,0.124c-0.355,0.188-0.428-0.279-0.588-0.036
				l0.035-0.054c-0.31-0.217-0.509-0.064-0.84-0.212c0.021-0.432-0.272-0.336-0.484-0.58l-0.004-0.001
				c0.138,0.166-0.235,0.241-0.261,0.399c0.221,0.061,0.358-0.162,0.537,0.029c-0.08,0.009-0.225,0.054-0.117,0.148
				c-0.606,0.016-0.622-0.431-1.013-0.642l-0.02,0.171l-0.099-0.299c-0.014,0.269-0.199,0.119-0.372,0.123l0.074-0.032
				c-0.019-0.009-0.04-0.012-0.06-0.019c-0.23,0.534-0.5,1.044-0.454,1.352L2.63,14.75c-0.371,0.575-0.073,1.162-0.507,1.9
				c-0.093,0.194-0.082,0.034-0.097-0.047c-0.037,0.567-0.049,1.134-0.004,1.694c-0.022-0.06-0.082-0.041-0.097-0.013
				c0.293,0.293-0.007,0.67,0.189,1.263c-0.021,0.121-0.075-0.002-0.107-0.003c0.071,0.823,0.368,1.656,0.495,2.487
				c-0.018-0.028-0.035-0.062-0.064-0.052l0.266,0.616l-0.078-0.112c0.939,3.311,3.226,6.103,5.824,8.118
				c-0.11-0.104-0.162-0.049-0.2-0.021l0.247,0.123l-0.001,0.052c0.169,0.063,0.301,0.167,0.424,0.274
				c0.147,0.02,0.289,0.056,0.421,0.13l-0.124,0.122c0.05,0.039,0.107,0.067,0.162,0.096c0.955-0.045,1.252,0.61,2.459,0.756
				l-0.427,0.007c0.513,0.114,1.038,0.264,1.564,0.427l0.325-0.898c0.061-0.4,0.239-0.804,0.337-1.139l0.061,0.037l0.095-0.264
				c-0.034-0.058-0.05-0.147-0.028-0.294c0.147-0.287,0.145-0.686,0.443-0.854l-0.021,0.096c0.019,0.075,0.131,0.119,0.189,0.22
				c0.016-0.205-0.077-0.463,0.011-0.609c0.045,0.068-0.06,0.463,0.119,0.565c-0.062,0.025-0.062,0.025-0.1-0.004
				c-0.02,0.123-0.049,0.214,0.062,0.263l0.124-0.158c0.194,0.351-0.282,0.42-0.029,0.586l-0.059-0.03
				c-0.216,0.3-0.058,0.494-0.206,0.818c-0.432-0.019-0.332,0.268-0.579,0.473l-0.001,0.004c0.164-0.123,0.241,0.235,0.407,0.267
				c0.053-0.216-0.174-0.355,0.019-0.534c0.013,0.082,0.059,0.23,0.153,0.125c0.02,0.592-0.431,0.602-0.639,0.99l0.176,0.028
				l-0.305,0.09c0.273,0.017,0.123,0.2,0.128,0.367l-0.033-0.071c-0.019,0.039-0.03,0.081-0.039,0.122
				c1.058,0.354,2.11,0.76,3.098,1.129c0.258,0.002,0.51-0.009,0.755-0.035c0.03,0.16,0.503,0.026,0.613,0.126
				c0.708-0.07,1.638-0.103,2.085-0.268c0.305,0.033,0.592-0.039,0.826,0.136c0.453-0.22,1.287-0.413,1.946-0.619l-0.05,0.043
				c0.522-0.241,1.142-0.39,1.575-0.51c-0.1-0.132-0.208-0.271-0.283-0.401l0.059,0.053c0.313,0.002,0.051-0.553,0.505-0.242
				c-0.056-0.515-0.578-0.099-0.747-0.432c0.123,0.108,0.145-0.008,0.183-0.072c-0.567-0.269-0.805-1.03-1.054-1.528l0.468-0.097
				c-0.256-0.499-0.394,0.119-0.736-0.371c-0.09-0.31-0.372-0.602-0.273-0.928c0.034,0.167,0.185,0.066,0.345,0.115
				c-0.133-0.162-0.378-0.292-0.414-0.459c0.081,0.019,0.278,0.383,0.487,0.334c-0.041,0.063-0.041,0.063-0.088,0.067
				c0.073,0.11,0.118,0.2,0.226,0.156l-0.015-0.201c0.384,0.127,0.09,0.498,0.378,0.447l-0.061,0.016
				c0.053,0.372,0.309,0.412,0.427,0.745c-0.348,0.285-0.032,0.433-0.102,0.787c-0.012-0.289,0.332-0.022,0.481-0.128
				c-0.113-0.192-0.367-0.138-0.354-0.401c0.063,0.05,0.2,0.127,0.19-0.015c0.434,0.421,0.114,0.74,0.225,1.163l0.156-0.098
				l-0.166,0.272c0.211-0.173,0.229,0.061,0.352,0.186l-0.074-0.034c0.062,0.197,0.241,0.354,0.336,0.347
				c0.08,0.257-0.171-0.013-0.139,0.158l0.23,0.154c-0.08,0.202-0.09-0.08-0.17,0.126c0.018,0.008,0.027,0.02,0.043,0.03
				c0.443-0.262,1.071-0.438,1.424-0.801c0.616-0.344,1.437-0.805,2.104-1.333c0.006,0.043,0.048,0.062,0.115,0.056
				c0.062-0.343,0.816-0.667,0.731-0.865c0.539-0.121,0.292-0.5,0.804-0.703c-0.039,0.025-0.028,0.045-0.023,0.065
				c0.115-0.131,0.377-0.388,0.62-0.574c0.021-0.028,0.047-0.047,0.076-0.06c0.089-0.062,0.171-0.11,0.241-0.133l0-0.003
				c-0.119,0.029-0.069-0.06,0.013-0.174l0.038-0.514c0.279-0.857,0.458-1.157,0.822-1.452l-0.046,0.401
				c0.045-0.204,0.141-0.2,0.209-0.288c-0.014,0.097-0.024,0.224-0.039,0.365c0.237-0.396,0.446-0.795,0.611-1.177
				c0.127,0.208-0.021-0.281,0.128-0.313l0.084-0.031c0.081-0.139,0.26-0.364,0.229-0.602c-0.008-0.004-0.008-0.004-0.011-0.004
				c0.126-0.165,0.233-0.224,0.342-0.364c-0.015-0.099-0.005-0.204-0.164-0.203c-0.211,0.223-0.4-0.045-0.608-0.135l0.196-0.062
				c0.027-0.067-0.167-0.199-0.299-0.265c-0.407,0.181-1.025,0.298-1.298-0.175l-0.402,0.215c-0.176-0.264-0.515-0.328-0.714-0.498
				l-0.044,0.177c-0.049-0.239-0.264-0.101-0.417-0.06c-0.016-0.071,0.011-0.136-0.005-0.206c-0.321-0.164-0.719,0.054-0.877-0.117
				c0.331-0.142-0.017-0.068,0.362-0.213c-0.273,0.073-0.311-0.301-0.559-0.125c-0.298-0.062-0.177-0.269-0.247-0.398
				c-0.016,0.304-0.411,0.179-0.507,0.28c-0.196-0.337-0.607,0.017-0.93-0.152c0.086,0.002,0.174,0.033,0.202-0.037
				c-0.122-0.187-0.19,0.004-0.312-0.047c0.016,0,0.017-0.024,0.046-0.047l-0.139-0.063c0.047,0.006,0.101-0.006,0.119-0.009
				c0.052-0.136-0.13-0.233-0.285-0.228c-0.098,0.138-0.494-0.191-0.643,0.044c0.027-0.234-0.512-0.29-0.366-0.534
				c-0.263-0.094-0.465,0.113-0.696,0.15c-0.197-0.163-0.278-0.162-0.335-0.396c-0.121-0.002-0.254-0.062-0.307,0.073l0.232,0.131
				c-0.488-0.02-0.512-0.499-1.05-0.351c0.109-0.071-0.106-0.138-0.002-0.205l-0.272,0.04c0.072-0.202,0.239-0.176,0.356-0.411
				c-0.319,0.039-0.144-0.275-0.417-0.234c0.139,0.199-0.236,0.167-0.361,0.31l0.094-0.237c-0.326,0.007-0.621,0.15-1.026,0.125
				c0.02-0.106-0.194-0.507-0.097-0.616c0.748-0.115,1.566,0.481,2.355,0.734l-0.094,0.141c0.313,0.334,0.445-0.182,0.803-0.016
				l-0.16,0.173c0.298-0.111,0.691,0.186,1.007,0.146c-0.363,0.009-0.508,0.453-0.864,0.154c-0.025,0.07-0.079,0.17-0.019,0.276
				c0.258,0.059,0.701,0.048,0.763-0.22c0.298,0.437,1.099,0.004,0.948,0.424c0.066-0.035,0.056-0.107,0.033-0.211
				c0.454,0.03,0.921,0.497,1.212,0.352l-0.132,0.136c0.304,0.268,0.703-0.117,1.09,0.18c0.186,0.1-0.224,0.075,0.008,0.207
				c0.493,0.018,1.007,0.15,1.407,0.31c-0.246,0.178-0.469,0.081-0.827,0.122c0.334,0.398-0.278-0.162-0.15,0.237
				c0.506,0.098,0.492-0.178,0.986,0.053c0.231-0.045-0.05-0.205-0.094-0.241c0.269-0.073,0.487,0.162,0.624-0.116
				c0.157,0.339,0,0.375,0.417,0.602c0.309-0.078,0.031-0.407,0.435-0.211c0.076,0.341,0.328-0.01,0.492,0.193
				c-0.044-0.002-0.129-0.032-0.16,0.037c0.483,0.33,0.116-0.039,0.517,0.296c0.277-0.589,0.902,0.42,1.17-0.025
				c-0.157,0.204,0.408,0.196,0.157,0.336L33.443,23.8c0.01-0.02,0.019-0.031,0.029-0.053c0.017-0.001,0.026-0.003,0.034-0.004
				l0.058-0.16l0.076,0.096c-0.111,0.05-0.098,0.059-0.134,0.064l-0.096,0.264l-0.022,0.137c-0.01-0.007-0.01-0.019-0.018-0.027
				l-0.215,0.59c-0.114,0.153,0.016,0.154-0.015,0.241c-0.127,0.207-0.089-0.084-0.209,0.209l0.037,0.066
				c-0.217,0.064,0.044,0.586-0.205,0.757l0.012-0.055c-0.388,0.137-0.309,0.89-0.744,1.21l0.076-0.012
				c-0.42,0.701-1.001,1.249-1.57,1.775c-0.003,0.485,0.506,0.515,0.287,1.203c-0.206,0.668-0.712,1.115-0.772,1.459
				c0.025-0.157,0.075-0.366-0.077-0.351c-0.262,0.048-0.013,0.368-0.173,0.54l-0.367,0.058l0.375-0.43
				c-0.143-0.338,0.022-0.815,0.134-1.131c0.344-0.164-0.262,0.659,0.064,0.631c0.199-0.434,0.036-0.579,0.276-1.103
				c-0.073,0.289,0.037,0.282,0.095,0.43l0.153-1.301c-0.41,0.379-0.815,0.747-1.142,1.147c-1.338,0.993-2.745,2.005-4.293,2.752
				c0.038,0.052,0.082,0.107,0.146,0.165c-0.107,0.039-0.251,0.051-0.226,0.164c-0.126-0.252-0.226-0.008-0.337,0.027
				c-0.013-0.04-0.041-0.088-0.07-0.136c-0.715,0.312-1.458,0.57-2.243,0.732c-1.261,0.429-2.601,0.693-3.948,0.75
				c0.077,0.025,0.159,0.054,0.235,0.077c0.2,0.492-0.603-0.087-1.107,0.011c0.08-0.023,0.088-0.051,0.055-0.081
				c-1.324-0.032-2.641-0.273-3.886-0.807c-1.297-0.602-3.358-0.976-4.541-2.044c-0.064-0.047-0.128-0.095-0.192-0.142
				c-0.219,0.092,0.209,0.224-0.134,0.235c-0.152-0.163-0.07-0.367-0.448-0.492l-0.452-0.032c0.161-0.045,0.56,0.117,0.505-0.1
				c-0.302-0.22-0.482,0.033-0.618-0.235c-0.095,0.052-0.263,0.203-0.472,0.178c0.109,0.088,0.291,0.183,0.329,0.262
				c-0.198-0.032-0.452-0.034-0.557-0.121L7.2,31.218c-0.39-0.621-0.966-0.177-1.671-0.82c0.159-0.045,0.472,0.076,0.725-0.029
				c-0.787-0.085-0.483-0.57-1.087-0.308L5.32,30.12c-0.61-0.092-1.174-0.106-1.741-0.472c0.351,0.089,0.074-0.098,0.171-0.152
				c0.823-0.197,1.134,0.277,2.128,0.493c-0.054,0.034-0.325-0.007-0.112,0.164c0.318,0.121,0.705,0.036,0.856,0.201
				c-0.134-0.017-0.329-0.151-0.339-0.047c0.372,0.227,0.616,0.337,1.069,0.367l-0.039-0.075c0.155,0.059,0.193,0.135,0.345,0.189
				l-0.011-0.137c0.176,0.202,0.386,0.281,0.607,0.317c-1.689-1.288-3.362-2.76-4.369-4.621c-0.635-1.006-1.082-2.076-1.416-3.181
				c-0.008-0.002-0.019-0.021-0.035-0.077c0.001-0.003,0,0,0.001-0.003c0.004,0.006,0.009,0.009,0.013,0.015
				c-0.336-1.126-0.555-2.287-0.734-3.453l0.049,0.001c-0.087-0.615-0.12-1.245-0.122-1.876c-0.142,0.491-0.305,0.969-0.47,1.385
				c-0.117-0.372,0.046-0.78,0.106-1.369c-0.521,0.653,0.254-0.51-0.22-0.196C1.032,17.688,1.015,17.766,1,17.84v1.24
				c0.004-0.007,0.01-0.018,0.013-0.023c0,0.031-0.01,0.061-0.013,0.092v3.961c0,2.001,0.5,3.884,1.373,5.539
				c0.023,0.005,0.043,0.002,0.066,0.008c0.442,0.243,0.15,0.518,0.804,0.582l0.162-0.044c0.398,0.34-0.231,0.279-0.575,0.233
				c0.049,0.077,0.092,0.158,0.142,0.234c0.114-0.016,0.353,0.089,0.46,0.179c-0.195-0.03-0.372-0.127-0.459-0.177
				C5.102,32.878,8.746,35,12.889,35h6.018c-0.063-0.01-0.126-0.022-0.18-0.052l0.33-0.093c-0.142-0.02-0.112-0.089-0.131-0.125
				c0.069-0.098,0.283,0.078,0.488,0.107c0.009,0.071-0.097,0.135-0.237,0.163h0.413c0.028-0.018,0.075-0.017,0.139,0h3.382
				c0.793,0,1.566-0.081,2.316-0.229c-0.121-0.185-0.252-0.36-0.355-0.491c0.033-0.06,0.099-0.095,0.144-0.098
				c-0.089-0.311-0.34-0.346-0.448-0.629c0.121-0.122,0.308,0.09,0.298-0.198c0.135,0.081,0.214,0.332,0.376,0.29
				c-0.103-0.175-0.089-0.289,0.011-0.36c-0.003-0.033-0.002-0.045,0.028-0.019l-0.028,0.019l0.358,0.81
				c0.073,0.045,0.151,0.093,0.212,0.126c-0.054,0.071-0.021,0.201-0.024,0.298l0.045,0.103c0.822-0.209,1.608-0.501,2.352-0.871
				c0.024-0.042,0.055-0.079,0.099-0.108c0.001,0.016,0.007,0.039,0.009,0.056C32.356,31.731,35,27.734,35,23.111V12.889
				C35,6.323,29.677,1,23.111,1z M23.176,3.191c-0.069-0.012-0.196-0.021-0.215,0.047l-0.3-0.178L23.176,3.191z M11.827,3.866
				c-0.049-0.027-0.077-0.074-0.102-0.132c0.054,0.032,0.1,0.066,0.136,0.109L11.827,3.866z M11.925,4.064
				c0.026-0.089-0.008-0.16-0.062-0.22l0.14-0.09L11.925,4.064z M32.979,24.376l-0.061,0.088
				C32.936,24.432,32.957,24.379,32.979,24.376z M32.234,24.475c0.016-0.032,0.034-0.085,0.058-0.086L32.234,24.475z M32.386,23.698
				l0.005-0.044c0.059-0.013,0.113-0.003,0.159,0.02C32.499,23.692,32.441,23.702,32.386,23.698l-0.026,0.161l-0.185-0.266
				C32.228,23.67,32.302,23.696,32.386,23.698z M32.04,25.935c-0.015,0.096-0.036,0.155-0.067,0.196
				C31.984,26.035,32.002,25.964,32.04,25.935z M31.573,25.861l0.2-0.124l-0.2,0.436C31.502,26.156,31.569,25.935,31.573,25.861z
				 M20.197,2.166L19.96,2.174l-0.01-0.107L20.197,2.166z M19.559,2.498l-0.011-0.004l0.013,0L19.56,2.499
				c0.363,0.179,0.872,0.131,0.955,0.357c0.421,0.089,0.498-0.271,0.863-0.084c-0.229,0.12,0.259,0.5-0.191,0.562
				c-0.713-0.443-1.053-0.407-1.747-0.632C19.55,2.666,19.58,2.584,19.559,2.498z M19.034,7.791l0.099,0.035l-0.118,0.005
				L19.034,7.791z M7.534,14.292c0.094,0.163,0.084,0.266-0.116,0.144C7.441,14.361,7.517,14.357,7.534,14.292z M7.283,14.796
				l-0.166,0.115L7.085,14.81L7.283,14.796z M8.204,20.009C8.198,19.978,8.2,19.962,8.18,19.933c0.007-0.067,0.054-0.01,0.068,0.039
				L8.204,20.009z M8.544,20.995c-0.021-0.05-0.093-0.147-0.059-0.209C8.466,20.848,8.619,21.015,8.544,20.995z M9.363,23.086
				c-0.036-0.059-0.031-0.093-0.03-0.131C9.361,23.004,9.418,23.077,9.363,23.086z M9.489,23.096
				c-0.018-0.098,0.013-0.087,0.078,0.016C9.55,23.135,9.516,23.106,9.489,23.096z M9.922,24.059
				c0.048-0.016,0.225,0.15,0.317,0.259L9.922,24.059z M9.9,15.891c0.041,0.002,0.117-0.008,0.138-0.076l0.158,0.125L9.9,15.891z
				 M10.635,24.935c-0.015,0.004-0.027-0.054-0.031-0.077c0.04,0.04,0.106,0.047,0.117,0.099
				C10.677,24.922,10.663,24.936,10.635,24.935z M9.617,15.778c0.025-0.212-0.311-0.218-0.159-0.404
				c0.087,0.027,0.185,0.092,0.238-0.016c-0.088-0.169-0.462-0.169-0.538-0.022c0.252,0.29-0.366-0.007-0.078,0.278
				c-0.136-0.058-0.282-0.249-0.391-0.206c-0.023-0.07,0.02-0.348,0.154-0.432c-0.084-0.023-0.372,0.105-0.467-0.061
				c-0.283,0.126,0.135,0.433-0.13,0.496c-0.169-0.162,0.146-0.185-0.053-0.308l-0.299,0.37c-0.446-0.41-0.541,0.082-0.911-0.339
				c0.286-0.127,0.283,0.012,0.585,0.057c-0.037-0.136-0.077-0.234,0.109-0.322c-0.052,0.109,0.066,0.094,0.169,0.161l-0.076-0.38
				c0.16-0.007,0.342,0.046,0.428-0.066l-0.37-0.141c0.889,0.237,1.927,0.565,2.645,0.925l-0.296,0.09
				c-0.12,0.147,0.185,0.088,0.305,0.219c0.062-0.079,0.457-0.113,0.147-0.326c0.126,0.025,0.268-0.055,0.348,0.075
				C11.115,15.999,10.056,15.603,9.617,15.778z M11.745,16.465l-0.141-0.05l0.149-0.048L11.745,16.465z M11.498,15.796
				c-0.246-0.014-0.34,0.34-0.547,0.217c0.158-0.15-0.09-0.441,0.197-0.569c0.382,0.314,0.597,0.226,0.994,0.335
				c-0.072,0.047-0.102,0.131-0.101,0.214C11.844,15.877,11.522,16,11.498,15.796z M12.045,15.992l-0.004,0.003l0.001-0.004
				L12.045,15.992z M14.432,28.525c-0.076-0.019-0.081-0.098-0.156-0.116C14.447,28.319,14.552,28.331,14.432,28.525z
				 M14.806,28.861l-0.011-0.199l0.117,0.172L14.806,28.861z M15.361,26.522c0.025-0.089,0.086-0.189-0.022-0.238
				c-0.168,0.085-0.164,0.454-0.016,0.534c0.285-0.249-0.001,0.362,0.285,0.077c-0.061,0.135-0.254,0.274-0.207,0.385
				c-0.071,0.015-0.353-0.024-0.438-0.161c-0.027,0.088,0.105,0.374-0.063,0.459c0.129,0.286,0.441-0.123,0.501,0.139
				c-0.16,0.172-0.19-0.148-0.311,0.05l0.374,0.292c-0.404,0.448,0.091,0.544-0.329,0.912c-0.131-0.287,0.012-0.286,0.047-0.584
				c-0.133,0.04-0.235,0.074-0.318-0.103c0.105,0.05,0.096-0.072,0.153-0.17l-0.38,0.068c-0.009-0.155,0.04-0.333-0.071-0.422
				l-0.139,0.366c0.231-0.878,0.558-1.901,0.913-2.609l0.097,0.297c0.146,0.119,0.081-0.187,0.216-0.304
				c-0.077-0.06-0.114-0.458-0.331-0.146c0.025-0.133-0.058-0.266,0.072-0.347c0.583-0.132,0.189,0.913,0.37,1.342
				C15.556,26.344,15.549,26.668,15.361,26.522z M15.878,26.087c-0.001-0.046-0.005-0.119-0.077-0.138l0.12-0.161L15.878,26.087z
				 M15.99,25.044c-0.149-0.159-0.443,0.089-0.572-0.195c0.312-0.373,0.222-0.592,0.325-0.984c0.048,0.071,0.131,0.1,0.218,0.102
				l0.002-0.005l0.001,0.005l-0.001,0.001c0,0,0.001,0,0.001,0c-0.121,0.199,0.012,0.516-0.197,0.537
				C15.753,24.746,16.113,24.847,15.99,25.044z M16.387,24.401l-0.05-0.146l0.109,0.01L16.387,24.401z M20.125,22.957
				c0.246-0.625-0.469-0.709-0.573-1.252l-0.168,0.168c-0.228-0.872-0.722-1.746-1.178-2.513c-0.002,0.036-0.003,0.075-0.007,0.104
				l-0.241-0.11c-0.136,0.189,0.116,0.575-0.196,0.525c0.067-0.095,0.029-0.16,0.038-0.212c-0.358,0.299-0.027,0.434-0.529,0.913
				c0.207,0.075,0.481,0.023,0.589,0.044c-0.335,0.35-0.273,0.175-0.61,0.444c0.173,0.043,0.142,0.132,0.18,0.243
				c-0.36,0.56-0.019,0.451-0.248,0.896c0.039,0.073,0.107,0.024,0.138,0.017c-0.237,0.124,0.011,0.355-0.266,0.329
				c0.067-0.091,0.064-0.209-0.044-0.27c-0.132,0.108-0.053,0.334-0.119,0.508c0.103,0.059,0.302-0.264,0.315,0.094
				c-0.017,0.568-0.792,0.293-0.584,0.963c-0.215,0.021-0.575,0.568-0.656,0.113c0.174-0.002,0.354-0.151,0.237-0.398l-0.19,0.215
				c-0.011-0.166,0.117-0.279,0.095-0.441c0.101,0.184,0.374,0.09,0.449,0.205l-0.127-0.214c0.611-0.288,0.142-0.832,0.44-1.295
				l-0.246,0.007c0.583-1.033,0.818-2.385,1.058-3.397c-0.129-0.023-0.259-0.039-0.39-0.035l0.098-0.108
				c-0.177-0.267-0.574-0.226-0.78-0.256l0.105-0.237c-0.19-0.132-0.582,0.11-0.526-0.196c0.093,0.068,0.16,0.031,0.207,0.032
				c-0.298-0.35-0.432-0.023-0.927-0.524c-0.071,0.2-0.017,0.475-0.034,0.576c-0.355-0.331-0.182-0.269-0.454-0.605
				c-0.047,0.17-0.132,0.14-0.252,0.181c-0.562-0.362-0.445-0.031-0.899-0.252c-0.075,0.033-0.025,0.098-0.014,0.132
				c-0.136-0.234-0.363,0.011-0.341-0.262c0.092,0.06,0.212,0.06,0.272-0.04c-0.108-0.133-0.335-0.061-0.511-0.129
				c-0.055,0.105,0.27,0.302-0.092,0.31c-0.574-0.017-0.308-0.784-0.979-0.588c-0.022-0.206-0.579-0.567-0.123-0.647
				c0.007,0.173,0.167,0.357,0.406,0.24l-0.223-0.191c0.168-0.008,0.289,0.119,0.454,0.097c-0.185,0.098-0.087,0.373-0.205,0.44
				l0.217-0.123c0.289,0.607,0.845,0.152,1.311,0.45l-0.012-0.242c1.063,0.595,2.457,0.832,3.486,1.083l0.089,0.412
				c0.086-0.044,0.096-0.098,0.101-0.143c-0.022,0.027-0.062,0.01-0.149-0.126c0.085-0.058,0.143-0.14,0.23-0.196
				c-0.282-0.006-0.142-0.488-0.472-0.43c-0.179-0.711-0.647-1.566-0.99-2.053c-0.065-0.403,0.44-0.129,0.303-0.453
				c-0.079-0.101-0.151-0.165-0.077-0.134c0.034,0.05,0.059,0.097,0.077,0.134c0.086,0.113,0.181,0.281,0.102,0.432l0.675,0.429
				c-0.298-0.005,0.071,0.314-0.161,0.369c0.139,0.139,0.021,0.313,0.28,0.28c-0.125,0.263-0.258-0.252-0.364-0.025
				c-0.034,0.398,0.66,0.368,0.242,0.624c0.545,0.258-0.055-0.819,0.378-0.341l-0.047,0.288c0.199,0.275,0.351,0.664,0.574,1.014
				c-0.052-0.18,0.241-0.391-0.002-0.548c0.36-0.637,0.605-1.573,0.692-2.153c0.236-0.338,0.414,0.207,0.535-0.125
				c0.014-0.127,0.004-0.221,0.04-0.153c-0.011,0.065-0.026,0.115-0.04,0.153c-0.012,0.144-0.056,0.328-0.219,0.381l0.197,0.766
				c-0.215-0.2-0.165,0.272-0.375,0.157c0,0.199-0.199,0.24,0.012,0.401c-0.27,0.095-0.009-0.361-0.251-0.273
				c-0.3,0.265,0.235,0.716-0.253,0.617c0.233,0.556,0.528-0.634,0.519,0.014l-0.238,0.172c-0.041,0.347-0.221,0.752-0.295,1.176
				c0.082,0.024,0.16,0.02,0.229-0.081c0.647,0.36,1.589,0.612,2.181,0.704c0.343,0.232-0.205,0.409,0.131,0.53
				c0.131,0.016,0.224,0.011,0.153,0.039c-0.065-0.008-0.113-0.022-0.152-0.039c0,0,0,0,0.001,0.001
				c-0.142-0.014-0.337-0.062-0.389-0.225l-0.769,0.192c0.192-0.211-0.279-0.165-0.166-0.37c-0.201,0.004-0.244-0.2-0.4,0.01
				c-0.106-0.273,0.36-0.012,0.27-0.246c-0.269-0.298-0.721,0.226-0.627-0.257c-0.559,0.218,0.644,0.531-0.012,0.513l-0.171-0.235
				c-0.043-0.006-0.09-0.021-0.134-0.031c0,0,0.001,0.001,0.001,0.001l-0.251,0.082c0.036,0.229,0.487,0.343,0.22,0.511
				c-0.013-0.107-0.087-0.135-0.116-0.174c-0.055,0.463,0.279,0.33,0.251,1.028c0.203-0.081,0.361-0.31,0.454-0.363
				c-0.003,0.479-0.077,0.305-0.131,0.735c0.155-0.083,0.192-0.002,0.298,0.062c0.127,0.648,0.295,0.337,0.439,0.823
				c0.074,0.029,0.087-0.06,0.108-0.086c-0.081,0.257,0.255,0.258,0.042,0.429c-0.021-0.119-0.104-0.202-0.219-0.171
				c-0.027,0.166,0.188,0.281,0.263,0.451c0.116-0.025,0.03-0.397,0.287-0.141c0.383,0.428-0.366,0.752,0.248,1.107
				c-0.142,0.157-0.026,0.808-0.399,0.528c0.126-0.123,0.148-0.358-0.104-0.456l0.014,0.287c-0.122-0.112-0.113-0.289-0.238-0.392
				c0.196,0.067,0.327-0.188,0.464-0.152L20.125,22.957z M20.844,23.778l-0.14-0.08l0.087-0.065L20.844,23.778z M20.004,23.819
				c0.084,0.017,0.172-0.018,0.23-0.073c0.047,0.22,0.365,0.369,0.231,0.52c0.157,0.189,0.491,0.016,0.536,0.247
				c-0.22-0.009-0.26,0.364-0.556,0.245C20.417,24.27,20.2,24.172,20.004,23.819z M22.087,28.146
				c0.06-0.177,0.145-0.239,0.192-0.018C22.212,28.163,22.155,28.113,22.087,28.146z M22.787,28.12l-0.153-0.135l0.203,0.039
				L22.787,28.12z M21.747,25.633c-0.166,0.131,0.051,0.369-0.18,0.391c-0.043-0.086-0.069-0.192-0.18-0.158
				c-0.06,0.176,0.191,0.444,0.354,0.405c0.036-0.379,0.251,0.263,0.265-0.14c0.049,0.142,0.001,0.375,0.11,0.425
				c-0.037,0.059-0.267,0.222-0.423,0.181c0.044,0.077,0.34,0.204,0.277,0.379c0.295,0.12,0.228-0.398,0.451-0.242
				c0.003,0.236-0.235,0.023-0.181,0.251l0.469-0.042c0.012,0.605,0.438,0.338,0.385,0.889c-0.285-0.119-0.193-0.218-0.364-0.461
				c-0.076,0.122-0.122,0.213-0.307,0.144c0.111-0.04,0.016-0.116,0.001-0.232l-0.231,0.305c-0.118-0.103-0.202-0.272-0.347-0.26
				l0.151,0.361c-0.441-0.794-0.909-1.771-1.142-2.529l0.275,0.151c0.185-0.015-0.066-0.197-0.055-0.371
				c-0.097,0.005-0.396-0.26-0.338,0.115c-0.075-0.11-0.228-0.153-0.188-0.305C20.882,24.405,21.316,25.439,21.747,25.633z
				 M21.64,25.352c-0.03-0.024-0.089-0.077-0.151-0.042l-0.023-0.2L21.64,25.352z M23.463,4.113
				c0.083-0.047,0.109-0.121,0.103-0.205L23.53,3.901c-0.014-0.053-0.002-0.11,0.02-0.163c0.013,0.059,0.024,0.115,0.016,0.169
				l0.169,0.029L23.463,4.113z M26.369,12.011c-0.046-0.059,0.008-0.037,0.007-0.056C26.379,11.981,26.366,11.994,26.369,12.011z
				 M26.348,11.904c0.032,0.024,0.028,0.035,0.029,0.048C26.379,11.946,26.372,11.933,26.348,11.904z M26.795,12.264
				c-0.007,0.004-0.016,0.004-0.028-0.017c0.001-0.001,0.003-0.001,0.001-0.004C26.778,12.25,26.785,12.257,26.795,12.264
				c0.016-0.008,0.021-0.048,0.052,0.043C26.834,12.3,26.812,12.277,26.795,12.264z M28.437,15.992l-0.008-0.041l0.094-0.008
				L28.437,15.992z M30.743,7.023c-0.131-0.187,0.038-0.047,0.163,0.097l0.041,0.138C30.872,7.163,30.839,7.118,30.743,7.023z
				 M32.559,9.474c-0.118,0.174-0.212,0.316-0.195,0.235c0.031-0.087,0.216-0.229,0.178-0.361c-0.088-0.131-0.172-0.252-0.198-0.34
				C32.342,9.103,32.636,9.297,32.559,9.474z M32.124,12.296c0.006,0.042,0.443,0.002,0.374,0.075
				C32.31,12.363,32.217,12.33,32.124,12.296z M32.671,12.277c-0.196-0.049-0.144-0.061,0.124-0.05
				C32.813,12.252,32.726,12.262,32.671,12.277z M1.73,20.466c0.034-0.036,0.059-0.063,0.074-0.048L1.73,20.466z M1.956,22.169
				c-0.064-0.223,0.077,0.063-0.01-0.231C2.043,22.181,1.952,22.124,1.956,22.169z M3.261,29.637l0.055-0.028l0.19,0.134
				L3.261,29.637z M25.623,33.484l0.095,0.079l0.17,0.245L25.623,33.484z M26.021,34.216c0.011-0.023,0.036-0.039,0.067-0.05
				c0.008,0.058,0.038,0.087,0.068,0.11C26.121,34.267,26.076,34.247,26.021,34.216z M29.417,32.855
				c-0.124-0.159-0.485,0.136-0.652,0.61c-0.194-0.18,0.425-0.83,0.161-1.02c0.236-0.219,0.543-0.359,0.595-0.141L29.417,32.855z
				 M30.888,28.947l-0.034-0.033l0.18,0L30.888,28.947z M33.135,16.377c0.099-0.063,0.072-0.077,0.108-0.123
				c0.005-0.02,0.124-0.054,0.156-0.063C33.303,16.253,33.231,16.349,33.135,16.377z M33.582,23.504l-0.062-0.517
				c0.024-0.016,0.041-0.004,0.059-0.022C33.46,23.077,33.769,23.34,33.582,23.504z M33.638,22.839
				c-0.119,0.009,0.056-0.23-0.005-0.312C33.662,22.574,33.736,22.675,33.638,22.839z M34.214,15.889
				c-0.336,0.196-0.023-0.051-0.175,0.012c-0.151,0.148-0.307,0.164-0.45,0.239c-0.037,0.039-0.074,0.073-0.172,0.141
				c0.053-0.065,0.111-0.109,0.172-0.141c0.065-0.064,0.075-0.103,0.037-0.113c0.009-0.001,0.012,0.004,0.036,0
				C33.912,15.903,34.455,15.675,34.214,15.889z M34.326,14.095c0.059,0.033,0.21,0.476,0.317,1.034
				C34.522,14.638,34.424,14.359,34.326,14.095z"/>
			<path id="XMLID_180_" style="fill:none;" d="M12.967,32.983c-0.028-0.005-0.057-0.02-0.086-0.047l-0.011-0.079l0.008-0.021
				c-0.263-0.11-0.532-0.2-0.788-0.236c-0.012,0.03-0.05,0.046-0.096,0.058c0.351,0.181,0.72,0.344,1.099,0.491L12.967,32.983z"/>
			<path id="XMLID_181_" style="fill:none;" d="M17.243,1h-0.55c0.199,0.061,0.436,0.081,0.648,0.161
				C17.37,1.127,17.304,1.063,17.243,1z"/>
			<path id="XMLID_184_" style="fill:none;" d="M1.245,17.737c-0.006-0.435,0.407-0.59,0.291-0.968
				c0.048-0.167,0.101-0.26,0.155-0.321c0.166-1.958,0.694-3.888,1.496-5.511c0.249-0.69,0.605-1.353,1.021-1.993
				c0.215-0.465,0.519-0.709,0.52-1.383c0.048,0.162,0.177-0.221,0.226-0.057l0.031-0.452C5.166,7.122,5.129,7.359,5.28,7.501
				c0.025-0.03,0.05-0.06,0.076-0.09c0.081-0.336,0.304-0.212,0.341-0.62C5.449,7.083,5.58,6.442,5.468,6.273L5.363,6.226
				c0.048-0.014,0.081,0.008,0.105,0.046l0.227,0.09c0.082-0.545,0.011-1.007,0.16-1.711C5.954,4.658,6.451,4.203,6.54,4.348
				C6.482,5.157,6.086,6.092,5.68,7.032c0.602-0.676,1.246-1.315,1.883-1.91l0.015,0.022c0.734-0.658,1.579-1.106,2.462-1.646
				c-0.077,0.051-0.044,0.054-0.039,0.075c0.307-0.203,0.622-0.379,0.939-0.552c-0.223-0.248-0.313-0.551-0.476-0.752
				c0.215-0.389-0.238-0.661-0.422-0.912c-0.885,0.218-1.73,0.532-2.525,0.935c-0.113,0.365-0.21,0.706-0.284,0.994
				C6.875,3.927,6.849,3.039,6.622,3.64C6.68,3.389,6.778,3.061,6.97,2.929l0.006-0.344C3.408,4.637,1,8.478,1,12.889v4.595
				c0.025-0.118,0.059-0.222,0.116-0.302C1.18,17.713,1.197,17.141,1.245,17.737z M6.624,3.641C6.568,3.865,6.552,4.023,6.534,3.91
				C6.566,3.797,6.595,3.715,6.624,3.641z M4.469,8.293L4.46,8.377L4.286,8.6L4.469,8.293z M1.549,16.065
				c-0.001,0.012-0.001,0.022-0.001,0.031c-0.002,0.005-0.002,0.005-0.004,0.011C1.544,16.088,1.546,16.083,1.549,16.065z"/>
			<path id="XMLID_187_" style="fill:none;" d="M31.226,27.326c-0.017,0.077-0.018,0.169-0.019,0.264
				c0.113-0.153,0.225-0.309,0.332-0.467C31.491,26.978,31.525,26.766,31.226,27.326z"/>
			<path id="XMLID_188_" style="fill:none;" d="M15.091,33.729c-0.535-0.248-0.935-0.613-1.34-0.567l0.105,0.196
				c-0.082-0.055-0.177-0.111-0.271-0.167c-0.035,0.028-0.057-0.013-0.079-0.049c-0.018-0.011-0.035-0.021-0.053-0.032
				c-0.009,0.005-0.018,0.013-0.029,0.03l0.034,0.148C13.993,33.476,14.543,33.626,15.091,33.729z"/>
			<path id="XMLID_189_" style="fill:none;" d="M18.317,17.913c0.002,0,0.004,0,0.006,0c-0.016-0.014-0.022-0.03-0.031-0.044
				C18.301,17.884,18.307,17.899,18.317,17.913z"/>
			<path id="XMLID_190_" style="fill:none;" d="M17.691,17.959c0.014-0.018,0.049-0.019,0.141,0.016
				c0.007-0.065,0.001-0.133-0.043-0.195C17.712,17.75,17.707,17.874,17.691,17.959z"/>
			<path id="XMLID_191_" style="fill:#FFFFFF;" d="M6.622,3.64c0.228-0.601,0.253,0.288,0.612-0.353
				c0.073-0.288,0.171-0.629,0.284-0.994c-0.183,0.093-0.364,0.19-0.542,0.292L6.97,2.929C6.778,3.061,6.68,3.389,6.622,3.64z"/>
			<path id="XMLID_192_" style="fill:#FFFFFF;" d="M1,19.08v0.069c0.003-0.031,0.013-0.061,0.013-0.092
				C1.01,19.062,1.004,19.073,1,19.08z"/>
			<path id="XMLID_193_" style="fill:#FFFFFF;" d="M3.405,29.196l-0.162,0.044c-0.654-0.064-0.363-0.339-0.804-0.582
				c-0.023-0.006-0.043-0.003-0.066-0.008c0.12,0.228,0.254,0.446,0.388,0.665c0.007-0.001,0.017,0.001,0.024,0l-0.014,0.017
				c0.02,0.032,0.039,0.065,0.059,0.097C3.175,29.475,3.803,29.535,3.405,29.196z"/>
			<path id="XMLID_196_" style="fill:#FFFFFF;" d="M1.277,17.79c-0.06,0.589-0.223,0.997-0.106,1.369
				c0.165-0.416,0.328-0.894,0.47-1.385c0.002,0.632,0.035,1.261,0.122,1.876l-0.049-0.001c0.179,1.166,0.398,2.327,0.734,3.453
				c-0.004-0.006-0.009-0.009-0.013-0.015c-0.001,0.003,0,0-0.001,0.003c0.016,0.056,0.027,0.075,0.035,0.077
				c0.334,1.104,0.781,2.175,1.416,3.181c1.007,1.861,2.68,3.333,4.369,4.621c-0.221-0.036-0.431-0.115-0.607-0.317l0.011,0.137
				c-0.152-0.054-0.19-0.13-0.345-0.189l0.039,0.075c-0.453-0.029-0.697-0.14-1.069-0.367c0.01-0.105,0.205,0.029,0.339,0.047
				c-0.151-0.165-0.538-0.08-0.856-0.201c-0.213-0.171,0.058-0.13,0.112-0.164c-0.995-0.216-1.305-0.69-2.128-0.493
				c-0.097,0.054,0.18,0.241-0.171,0.152c0.567,0.366,1.131,0.381,1.741,0.472l-0.153-0.058c0.604-0.262,0.3,0.223,1.087,0.308
				c-0.253,0.105-0.566-0.016-0.725,0.029c0.705,0.643,1.281,0.199,1.671,0.82l-0.062-0.007c0.105,0.087,0.359,0.089,0.557,0.121
				c-0.038-0.079-0.219-0.174-0.329-0.262c0.21,0.025,0.377-0.126,0.472-0.178c0.136,0.268,0.316,0.015,0.618,0.235
				c0.055,0.217-0.344,0.054-0.505,0.1l0.452,0.032c0.378,0.125,0.296,0.329,0.448,0.492c0.343-0.012-0.085-0.143,0.134-0.235
				c0.064,0.047,0.128,0.096,0.192,0.142c1.183,1.069,3.245,1.443,4.541,2.044c1.244,0.534,2.562,0.775,3.886,0.807
				c0.033,0.03,0.025,0.058-0.055,0.081c0.504-0.098,1.307,0.482,1.107-0.011c-0.075-0.023-0.158-0.052-0.235-0.077
				c1.347-0.058,2.686-0.321,3.948-0.75c0.785-0.162,1.528-0.42,2.243-0.732c0.029,0.048,0.058,0.096,0.07,0.136
				c0.111-0.035,0.211-0.279,0.337-0.027c-0.025-0.113,0.119-0.125,0.226-0.164c-0.064-0.058-0.109-0.113-0.146-0.165
				c1.548-0.747,2.955-1.76,4.293-2.752c0.326-0.399,0.731-0.768,1.142-1.147l-0.153,1.301c-0.058-0.148-0.169-0.14-0.095-0.43
				c-0.24,0.524-0.078,0.668-0.276,1.103c-0.326,0.028,0.281-0.795-0.064-0.631c-0.112,0.315-0.276,0.792-0.134,1.131l-0.375,0.43
				l0.367-0.058c0.16-0.172-0.089-0.492,0.173-0.54c0.152-0.015,0.102,0.194,0.077,0.351c0.06-0.344,0.566-0.791,0.772-1.459
				c0.22-0.688-0.289-0.718-0.287-1.203c0.569-0.525,1.149-1.074,1.57-1.775l-0.076,0.012c0.435-0.32,0.356-1.073,0.744-1.21
				l-0.012,0.055c0.249-0.172-0.013-0.693,0.205-0.757l-0.037-0.066c0.12-0.294,0.082-0.003,0.209-0.209
				c0.031-0.087-0.099-0.088,0.015-0.241l0.215-0.59c0.007,0.008,0.008,0.02,0.018,0.027l0.022-0.137l0.096-0.264
				c-0.009,0.001-0.017,0.002-0.034,0.004c-0.01,0.023-0.019,0.033-0.029,0.053l0.033-0.203c0.251-0.14-0.314-0.132-0.157-0.336
				c-0.268,0.446-0.893-0.564-1.17,0.025c-0.402-0.335-0.034,0.035-0.517-0.296c0.03-0.069,0.116-0.039,0.16-0.037
				c-0.164-0.203-0.417,0.148-0.492-0.193c-0.405-0.196-0.126,0.132-0.435,0.211c-0.417-0.227-0.261-0.263-0.417-0.602
				c-0.137,0.278-0.356,0.043-0.624,0.116c0.044,0.036,0.326,0.196,0.094,0.241c-0.494-0.231-0.48,0.045-0.986-0.053
				c-0.127-0.399,0.484,0.161,0.15-0.237c0.358-0.041,0.581,0.057,0.827-0.122c-0.4-0.16-0.914-0.291-1.407-0.31
				c-0.231-0.132,0.178-0.107-0.008-0.207c-0.388-0.297-0.786,0.088-1.09-0.18l0.132-0.136c-0.291,0.146-0.759-0.322-1.212-0.352
				c0.023,0.104,0.033,0.176-0.033,0.211c0.151-0.419-0.649,0.013-0.948-0.424c-0.062,0.268-0.506,0.279-0.763,0.22
				c-0.06-0.106-0.006-0.206,0.019-0.276c0.356,0.299,0.5-0.145,0.864-0.154c-0.316,0.04-0.709-0.257-1.007-0.146l0.16-0.173
				c-0.358-0.166-0.49,0.35-0.803,0.016l0.094-0.141c-0.789-0.253-1.607-0.849-2.355-0.734c-0.097,0.108,0.117,0.509,0.097,0.616
				c0.405,0.025,0.7-0.118,1.026-0.125l-0.094,0.237c0.125-0.144,0.5-0.112,0.361-0.31c0.273-0.041,0.098,0.273,0.417,0.234
				c-0.116,0.235-0.284,0.209-0.356,0.411l0.272-0.04c-0.104,0.067,0.111,0.134,0.002,0.205c0.537-0.148,0.562,0.331,1.05,0.351
				l-0.232-0.131c0.053-0.135,0.187-0.075,0.307-0.073c0.056,0.234,0.137,0.234,0.335,0.396c0.231-0.037,0.432-0.243,0.696-0.15
				c-0.146,0.244,0.393,0.3,0.366,0.534c0.148-0.235,0.545,0.094,0.643-0.044c0.155-0.005,0.337,0.092,0.285,0.228
				c-0.019,0.003-0.073,0.014-0.119,0.009l0.139,0.063c-0.029,0.023-0.03,0.047-0.046,0.047c0.122,0.052,0.19-0.14,0.312,0.047
				c-0.028,0.07-0.116,0.039-0.202,0.037c0.323,0.168,0.733-0.185,0.93,0.152c0.097-0.101,0.492,0.024,0.507-0.28
				c0.071,0.129-0.05,0.336,0.247,0.398c0.248-0.176,0.286,0.198,0.559,0.125c-0.379,0.145-0.031,0.071-0.362,0.213
				c0.158,0.171,0.556-0.047,0.877,0.117c0.016,0.071-0.011,0.136,0.005,0.206c0.152-0.041,0.368-0.179,0.417,0.06l0.044-0.177
				c0.2,0.17,0.539,0.234,0.714,0.498l0.402-0.215c0.273,0.473,0.89,0.356,1.298,0.175c0.132,0.066,0.326,0.198,0.299,0.265
				l-0.196,0.062c0.208,0.091,0.397,0.358,0.608,0.135c0.159-0.001,0.15,0.104,0.164,0.203c-0.108,0.14-0.216,0.198-0.342,0.364
				c0.003-0.001,0.003-0.001,0.011,0.004c0.03,0.238-0.149,0.463-0.229,0.602l-0.084,0.031c-0.149,0.032-0.001,0.521-0.128,0.313
				c-0.165,0.382-0.374,0.781-0.611,1.177c0.015-0.141,0.025-0.268,0.039-0.365c-0.068,0.088-0.164,0.084-0.209,0.288l0.046-0.401
				c-0.364,0.295-0.543,0.596-0.822,1.452l-0.038,0.514c-0.082,0.114-0.132,0.203-0.013,0.174l0,0.003
				c-0.069,0.023-0.152,0.071-0.241,0.133c-0.029,0.013-0.055,0.032-0.076,0.06c-0.243,0.185-0.505,0.442-0.62,0.574
				c-0.005-0.02-0.016-0.04,0.023-0.065c-0.512,0.203-0.265,0.582-0.804,0.703c0.085,0.197-0.668,0.522-0.731,0.865
				c-0.067,0.007-0.109-0.012-0.115-0.056c-0.666,0.528-1.488,0.989-2.104,1.333c-0.354,0.362-0.982,0.539-1.424,0.801
				c-0.015-0.009-0.025-0.021-0.043-0.03c0.08-0.207,0.091,0.076,0.17-0.126l-0.23-0.154c-0.032-0.172,0.219,0.098,0.139-0.158
				c-0.095,0.006-0.274-0.15-0.336-0.347l0.074,0.034c-0.123-0.125-0.142-0.358-0.352-0.186l0.166-0.272l-0.156,0.098
				c-0.11-0.422,0.209-0.742-0.225-1.163c0.01,0.142-0.128,0.065-0.19,0.015c-0.013,0.263,0.241,0.209,0.354,0.401
				c-0.149,0.107-0.493-0.161-0.481,0.128c0.07-0.354-0.246-0.502,0.102-0.787c-0.118-0.333-0.373-0.373-0.427-0.745l0.061-0.016
				c-0.289,0.051,0.006-0.32-0.378-0.447l0.015,0.201c-0.108,0.044-0.153-0.046-0.226-0.156c0.048-0.004,0.048-0.004,0.088-0.067
				c-0.209,0.049-0.407-0.315-0.487-0.334c0.036,0.168,0.28,0.297,0.414,0.459c-0.16-0.05-0.311,0.051-0.345-0.115
				c-0.099,0.326,0.183,0.618,0.273,0.928c0.342,0.49,0.48-0.128,0.736,0.371l-0.468,0.097c0.249,0.498,0.487,1.259,1.054,1.528
				c-0.038,0.064-0.059,0.179-0.183,0.072c0.169,0.333,0.691-0.084,0.747,0.432c-0.454-0.311-0.191,0.244-0.505,0.242l-0.059-0.053
				c0.075,0.131,0.183,0.27,0.283,0.401c-0.434,0.121-1.053,0.269-1.575,0.51l0.05-0.043c-0.659,0.206-1.493,0.399-1.946,0.619
				c-0.234-0.174-0.521-0.103-0.826-0.136c-0.447,0.165-1.377,0.198-2.085,0.268c-0.111-0.1-0.583,0.034-0.613-0.126
				c-0.245,0.026-0.498,0.037-0.755,0.035c-0.988-0.369-2.04-0.775-3.098-1.129c0.009-0.041,0.02-0.083,0.039-0.122l0.033,0.071
				c-0.005-0.166,0.145-0.35-0.128-0.367l0.305-0.09l-0.176-0.028c0.208-0.387,0.659-0.398,0.639-0.99
				c-0.094,0.105-0.14-0.043-0.153-0.125c-0.193,0.179,0.034,0.318-0.019,0.534c-0.166-0.032-0.243-0.39-0.407-0.267l0.001-0.004
				c0.247-0.205,0.146-0.492,0.579-0.473c0.148-0.324-0.01-0.518,0.206-0.818l0.059,0.03c-0.254-0.166,0.223-0.235,0.029-0.586
				l-0.124,0.158c-0.111-0.049-0.082-0.14-0.062-0.263c0.038,0.029,0.038,0.029,0.1,0.004c-0.179-0.102-0.075-0.497-0.119-0.565
				c-0.089,0.145,0.004,0.404-0.011,0.609c-0.058-0.101-0.17-0.145-0.189-0.22l0.021-0.096c-0.298,0.168-0.296,0.567-0.443,0.854
				c-0.022,0.147-0.006,0.235,0.028,0.294l-0.095,0.264l-0.061-0.037c-0.098,0.335-0.276,0.739-0.337,1.139l-0.325,0.898
				c-0.526-0.164-1.05-0.313-1.564-0.427l0.427-0.007c-1.207-0.146-1.504-0.801-2.459-0.756c-0.055-0.029-0.112-0.057-0.162-0.096
				l0.124-0.122c-0.132-0.074-0.274-0.11-0.421-0.13c-0.124-0.107-0.255-0.21-0.424-0.274l0.001-0.052L8.249,30.58
				c0.037-0.028,0.09-0.083,0.2,0.021c-2.598-2.015-4.885-4.806-5.824-8.118l0.078,0.112l-0.266-0.616
				c0.03-0.01,0.047,0.023,0.064,0.052c-0.128-0.831-0.424-1.664-0.495-2.487c0.032,0.002,0.086,0.125,0.107,0.003
				c-0.196-0.594,0.104-0.97-0.189-1.263c0.015-0.028,0.075-0.048,0.097,0.013c-0.045-0.56-0.033-1.127,0.004-1.694
				c0.016,0.081,0.004,0.242,0.097,0.047c0.434-0.738,0.136-1.325,0.507-1.9l0.112,0.189c-0.046-0.309,0.224-0.818,0.454-1.352
				c0.02,0.007,0.041,0.01,0.06,0.019l-0.074,0.032c0.173-0.005,0.358,0.145,0.372-0.123l0.099,0.299l0.02-0.171
				c0.391,0.211,0.407,0.658,1.013,0.642c-0.108-0.093,0.037-0.139,0.117-0.148c-0.179-0.191-0.316,0.032-0.537-0.029
				c0.026-0.158,0.398-0.234,0.261-0.399l0.004,0.001c0.213,0.244,0.505,0.148,0.484,0.58c0.33,0.148,0.53-0.004,0.84,0.212
				l-0.035,0.054c0.16-0.243,0.234,0.224,0.588,0.036l-0.159-0.124c0.05-0.109,0.135-0.082,0.268-0.061
				c-0.026,0.039-0.026,0.039-0.007,0.104c0.105-0.18,0.504-0.074,0.57-0.116c-0.146-0.09-0.406,0.001-0.613-0.013
				c0.099-0.061,0.144-0.172,0.22-0.19l0.094,0.021c-0.174-0.297-0.575-0.298-0.868-0.447c-0.148-0.022-0.237-0.006-0.296,0.028
				l-0.272-0.098l0.039-0.065c-0.341-0.099-0.755-0.278-1.162-0.339l-0.81-0.292c0.019-0.065,0.039-0.13,0.051-0.194
				c-0.116,0.065-0.193,0.105-0.212-0.013c0.396,0.166,0.17-1.086,0.724-1.7c-0.237-0.03-0.182-0.593-0.076-1.034
				c0.044-0.085,0.088-0.17,0.132-0.255c0.09-0.042,0.16,0.004,0.208,0.023c-0.419,0.667,0.02,0.807-0.078,1.416
				c0.045-0.523,0.475-1.257,0.445-1.74l0.139,0.239c0.279-0.648-0.237-0.748,0.212-1.363l0.122,0.122
				c0.093-0.26,0.202-0.526,0.314-0.793c0.875-1.074,1.98-2.007,3.1-2.829c0.688-0.468,1.139-0.802,1.871-1.211l0.05,0.051
				c0.179-0.135,0.371-0.248,0.569-0.351c0.003,0.05-0.015,0.09-0.092,0.098c0.515-0.11,0.202,1.025,0.829,0.823
				c0.029,0.511,0.045-0.004,0.136,0.574c-0.073,0.023-0.107-0.063-0.133-0.088c-0.038,0.256,0.39,0.198,0.193,0.485
				c0.134,0.425,0.192-0.004,0.459,0.169c0.118,0.459-0.014,0.367-0.158,0.714c0.302-0.088,0.279,0.225,0.519,0.367
				c-0.007-0.055-0.085-0.368,0.111-0.228c0.175,0.517,0.361,0.315,0.643,0.742c-0.208,0.37-0.215-0.456-0.28,0.056
				c-0.275-0.228-0.362-0.456-0.661-0.514c0.158,0.403,0.422,0.859,0.746,1.225c0.061,0.255-0.201-0.056-0.15,0.142
				c0.051,0.483,0.61,0.511,0.624,0.917l-0.197-0.002c0.305,0.111,0.288,0.769,0.582,1.106c0.059-0.08,0.1-0.143,0.18-0.112
				c-0.411,0.172,0.452,0.456,0.337,0.973c0.246-0.147,0.557,0.167,0.689,0.394c-0.029,0.116-0.145,0.142-0.213,0.172
				c-0.024-0.461-0.454-0.257-0.71-0.515c0.246,0.201,0.301,0.684,0.587,0.824l-0.241,0.004c0.129,0.367,0.596,0.112,0.569,0.569
				l-0.167,0.026c0.352,0.74,0.484,1.738,1.082,2.193c0.151-0.004,0.304-0.426,0.387-0.485c-0.266-0.314-0.57-0.425-0.803-0.653
				l0.238-0.098c-0.188,0.009-0.429-0.284-0.472-0.043c-0.221-0.17,0.128-0.257-0.119-0.457c0.252-0.085,0.347,0.057,0.551-0.028
				l-0.22-0.171c0.125,0.026,0.023-0.171,0.145-0.14c-0.48-0.291-0.142-0.627-0.466-0.995l0.066,0.254
				c-0.132,0.058-0.185-0.085-0.265-0.174c0.135-0.195,0.076-0.251,0.065-0.51c-0.189-0.14-0.482-0.141-0.595-0.396
				c0.282-0.056-0.049-0.488,0.149-0.627c-0.281,0.055-0.316-0.454-0.477-0.426c-0.116-0.115-0.17-0.313-0.034-0.373
				c0.02,0.02,0.062,0.047,0.09,0.084l-0.049-0.139c0.032,0.001,0.056-0.012,0.07-0.003c-0.048-0.124-0.237-0.04-0.182-0.252
				c0.07-0.032,0.111,0.058,0.165,0.116c-0.102-0.345-0.64-0.402-0.53-0.773c-0.147-0.001-0.324-0.37-0.555-0.172
				c0.05-0.141,0.282-0.195,0.124-0.45c-0.301-0.058-0.054-0.346-0.297-0.49c0.366,0.177,0.073-0.023,0.409,0.115
				c0.012-0.227-0.42-0.368-0.519-0.714c0.035-0.054,0.111-0.082,0.147-0.136c-0.138-0.085-0.386-0.144-0.248-0.346l-0.158,0.087
				c-0.013-0.255-0.2-0.542-0.129-0.855l-0.432-0.148c0.164-0.503-0.353-0.875-0.768-1.047c-0.044-0.142-0.079-0.372-0.007-0.394
				l0.174,0.091c-0.077-0.201-0.006-0.519-0.319-0.52c-0.014-0.015-0.01-0.024-0.018-0.038c1.001-0.421,2.153-0.597,3.161-1.01
				l-0.079,0.112c0.189-0.185,0.879-0.123,0.754-0.331l0.27,0.02c0.892-0.408,1.71-0.135,2.798-0.219
				c0.024,0.025,0.05,0.042,0.074,0.07l0.273-0.062c0.019-0.001,0.037-0.004,0.057-0.005c-0.156,0.063,0.039,0.36-0.231,0.409
				c0.262,0.02,0.496,0.196,0.773,0.232l-0.413-0.271c0.379-0.054,0.684,0.182,0.738,0.376c0.744,0.045-0.26-0.498-0.35-0.73
				c0.074,0.009,0.143,0.022,0.203,0.038c-0.038,0.002-0.024,0.023-0.102,0.03c0.996,0.287,2.149,0.249,3.203,0.548l-0.147,0.065
				c0.417,0.005,1.019,0.25,1.572,0.457L23.46,2.832c-0.142-0.249-0.127,0.305-0.341,0.15c0.455,0.268-0.558,0.879,0.041,1.157
				c-0.333,0.394,0.035,0.036-0.295,0.503c-0.068-0.024-0.038-0.109-0.038-0.153c-0.204,0.163,0.147,0.412-0.194,0.483
				c-0.194,0.397,0.142,0.13,0.219,0.435c-0.226,0.412-0.268,0.26-0.607,0.408c0.278,0.143,0.049,0.355,0.125,0.62
				c0.032-0.05,0.198-0.33,0.238-0.09c-0.227,0.489,0.05,0.473-0.044,0.97c-0.403,0.129,0.163-0.468-0.241-0.146
				c-0.047-0.356,0.051-0.577-0.13-0.819c-0.161,0.396-0.28,0.903-0.3,1.386c-0.131,0.231-0.112-0.174-0.207,0.005
				c-0.298,0.379,0.093,0.786-0.173,1.082L21.37,8.688c0.149,0.293-0.318,0.751-0.34,1.198c0.104-0.021,0.171-0.035,0.208,0.038
				c-0.421-0.153,0.021,0.64-0.42,0.93c0.279,0.061,0.291,0.503,0.232,0.757c-0.103,0.057-0.213-0.002-0.276-0.025
				c0.297-0.347-0.154-0.49-0.165-0.853c0.041,0.312-0.256,0.695-0.142,0.999l-0.176-0.167c-0.161,0.355,0.358,0.487,0.025,0.8
				l-0.142-0.096c-0.248,0.781-0.844,1.586-0.719,2.319c0.11,0.106,0.513-0.102,0.618-0.081c0.022-0.408-0.125-0.701-0.136-1.022
				l0.24,0.091c-0.142-0.122-0.12-0.496-0.316-0.355c-0.041-0.273,0.272-0.097,0.23-0.405c0.24,0.11,0.21,0.277,0.425,0.353
				l-0.046-0.275c0.072,0.109,0.13-0.106,0.207,0c-0.154-0.53,0.326-0.551,0.345-1.034l-0.128,0.227
				c-0.141-0.05-0.08-0.186-0.08-0.305c0.238-0.051,0.241-0.13,0.403-0.326c-0.044-0.231-0.252-0.428-0.16-0.687
				c0.245,0.148,0.296-0.386,0.539-0.358c-0.243-0.148,0.087-0.538-0.055-0.627c-0.007-0.164,0.09-0.344,0.23-0.294
				c0,0.025,0.017,0.071,0.009,0.127l0.062-0.141c0.025,0.024,0.045,0.03,0.048,0.046c0.053-0.121-0.141-0.19,0.047-0.305
				c0.072,0.026,0.04,0.115,0.037,0.19c0.166-0.31-0.193-0.715,0.144-0.91c-0.103-0.096,0.023-0.489-0.288-0.502
				c0.138-0.07,0.344,0.049,0.406-0.243c-0.183-0.242,0.198-0.279,0.12-0.546c0.146,0.37,0.069,0.024,0.219,0.355
				c0.166-0.156-0.053-0.553,0.111-0.867c0.065-0.016,0.138,0.01,0.202-0.004c-0.036-0.152-0.183-0.366,0.056-0.411L22.78,6.223
				c0.167-0.191,0.224-0.528,0.493-0.705l-0.217-0.397c0.471-0.256,0.349-0.877,0.166-1.28c0.066-0.133,0.19-0.323,0.261-0.292
				l0.068,0.188c0.087-0.199,0.353-0.382,0.127-0.594c-0.005-0.231,0.216-0.106,0.319-0.221c0.112,0.042,0.226,0.085,0.332,0.12
				c0.018-0.085,0.032-0.166,0.062-0.25l0.014-0.041c-1.343-0.549-2.748-0.947-4.171-1.168c-0.648-0.092-1.289-0.139-1.926-0.164
				C18.173,1.276,18.046,1.12,17.832,1h-0.589c0.062,0.063,0.127,0.127,0.098,0.161c-0.212-0.08-0.449-0.1-0.648-0.161h-0.545
				c0.573,0.268,1.123,0.225,1.61,0.401c-2.223-0.018-4.355,0.403-6.321,1.365c-0.464-0.306-0.247-1.284-0.835-1.179
				c0.077,0.173,0.111,0.541,0.276,0.855c-0.105-0.059-0.186,0.053-0.248-0.058c-0.172-0.315-0.039-0.568-0.276-0.855l0.371-0.113
				c0.012-0.077,0.005-0.144-0.007-0.209c-0.228,0.042-0.452,0.095-0.676,0.15c0.184,0.251,0.637,0.523,0.422,0.912
				c0.163,0.2,0.252,0.504,0.476,0.752c-0.317,0.172-0.632,0.349-0.939,0.552C9.997,3.552,9.963,3.549,10.04,3.498
				c-0.883,0.54-1.727,0.988-2.462,1.646L7.563,5.122C6.925,5.717,6.281,6.356,5.68,7.032c0.406-0.94,0.802-1.875,0.86-2.684
				C6.451,4.203,5.954,4.658,5.855,4.651c-0.148,0.704-0.078,1.166-0.16,1.711l-0.227-0.09c-0.024-0.038-0.057-0.06-0.105-0.046
				l0.105,0.047c0.112,0.169-0.02,0.81,0.229,0.518c-0.037,0.408-0.26,0.283-0.341,0.62c-0.025,0.03-0.05,0.06-0.076,0.09
				C5.129,7.359,5.166,7.122,4.985,7.053L4.954,7.505C4.906,7.342,4.776,7.724,4.728,7.562c0,0.673-0.305,0.918-0.52,1.383
				c-0.415,0.64-0.772,1.303-1.021,1.993c-0.802,1.623-1.33,3.553-1.496,5.511c-0.054,0.061-0.107,0.154-0.155,0.321
				c0.115,0.378-0.298,0.533-0.291,0.968c-0.048-0.597-0.065-0.025-0.129-0.555C1.059,17.263,1.025,17.367,1,17.484v0.355
				c0.015-0.074,0.032-0.152,0.058-0.245C1.531,17.28,0.756,18.443,1.277,17.79z M31.226,27.326
				c0.299-0.559,0.265-0.348,0.313-0.204c-0.107,0.159-0.219,0.314-0.332,0.467C31.208,27.495,31.209,27.403,31.226,27.326z
				 M13.453,33.111c0.019,0.011,0.035,0.021,0.053,0.032c0.022,0.036,0.044,0.077,0.079,0.049c0.093,0.056,0.189,0.112,0.271,0.167
				l-0.105-0.196c0.405-0.046,0.805,0.32,1.34,0.567c-0.548-0.103-1.098-0.253-1.633-0.441l-0.034-0.148
				C13.435,33.124,13.444,33.116,13.453,33.111z M12.09,32.598c0.256,0.036,0.525,0.127,0.788,0.236l-0.008,0.021l0.011,0.079
				c0.029,0.028,0.058,0.042,0.086,0.047l0.126,0.164c-0.379-0.147-0.748-0.31-1.099-0.491C12.04,32.645,12.078,32.628,12.09,32.598
				z M11.954,32.577c-0.061-0.016-0.096-0.013-0.129-0.009c-0.014-0.008-0.027-0.016-0.041-0.024
				C11.84,32.555,11.903,32.569,11.954,32.577z M4.301,9.273C4.284,9.348,4.263,9.428,4.252,9.504
				C4.21,9.527,4.181,9.551,4.149,9.575C4.2,9.474,4.251,9.373,4.301,9.273z M3.734,10.378c0.023,0.289,0.099,0.551-0.046,0.928
				c-0.215-0.199-0.425,0.731-0.676,0.738c0.173,0.159-0.099,0.679-0.144,0.936l-0.16,0.118C2.858,12.164,3.28,11.261,3.734,10.378z
				 M2.631,13.431l0.116-0.025c0.018,0.011,0.029,0.021,0.033,0.029c-0.005,0.011-0.009,0.023-0.014,0.034
				c-0.037,0.029-0.12,0.051-0.063,0.104c-0.045,0.063-0.093,0.103-0.14,0.095C2.587,13.59,2.606,13.509,2.631,13.431z"/>
			<path id="XMLID_203_" style="fill:#FFFFFF;" d="M16.067,1h-0.442c0.17,0.075,0.341,0.15,0.504,0.229L16.067,1z"/>
			<path id="XMLID_204_" style="fill:#FFFFFF;" d="M33.564,23.584l-0.058,0.16c0.035-0.005,0.023-0.014,0.134-0.064L33.564,23.584z"
				/>
			<path id="XMLID_205_" style="fill:#FFFFFF;" d="M32.918,24.465l0.061-0.088C32.957,24.379,32.936,24.432,32.918,24.465z"/>
			<path id="XMLID_206_" style="fill:#FFFFFF;" d="M26.795,12.264c0.018,0.013,0.039,0.036,0.052,0.043
				C26.815,12.216,26.811,12.256,26.795,12.264z"/>
			<path id="XMLID_207_" style="fill:#FFFFFF;" d="M26.766,12.247c0.012,0.021,0.021,0.021,0.028,0.017
				c-0.009-0.007-0.017-0.014-0.027-0.021C26.769,12.247,26.767,12.246,26.766,12.247z"/>
			<path id="XMLID_208_" style="fill:#FFFFFF;" d="M10.605,24.858c0.004,0.023,0.016,0.081,0.031,0.077
				c0.028,0.002,0.042-0.013,0.086,0.022C10.71,24.905,10.644,24.898,10.605,24.858z"/>
			<path id="XMLID_209_" style="fill:#FFFFFF;" d="M9.922,24.059l0.317,0.259C10.147,24.21,9.97,24.043,9.922,24.059z"/>
			<path id="XMLID_210_" style="fill:#FFFFFF;" d="M9.489,23.096c0.027,0.009,0.062,0.038,0.078,0.016
				C9.502,23.01,9.471,22.999,9.489,23.096z"/>
			<path id="XMLID_211_" style="fill:#FFFFFF;" d="M9.363,23.086c0.056-0.01-0.002-0.082-0.03-0.131
				C9.331,22.993,9.327,23.028,9.363,23.086z"/>
			<path id="XMLID_212_" style="fill:#FFFFFF;" d="M8.544,20.995c0.075,0.021-0.078-0.147-0.059-0.209
				C8.451,20.848,8.523,20.944,8.544,20.995z"/>
			<path id="XMLID_213_" style="fill:#FFFFFF;" d="M8.18,19.933c0.02,0.029,0.017,0.045,0.024,0.076l0.045-0.037
				C8.235,19.923,8.187,19.866,8.18,19.933z"/>
			<polygon id="XMLID_214_" style="fill:#FFFFFF;" points="19.034,7.791 19.015,7.831 19.133,7.826 			"/>
			<path id="XMLID_215_" style="fill:#FFFFFF;" d="M26.369,12.011c-0.003-0.016,0.011-0.03,0.007-0.056
				C26.376,11.973,26.322,11.951,26.369,12.011z"/>
			<path id="XMLID_216_" style="fill:#FFFFFF;" d="M26.378,11.951c-0.001-0.013,0.003-0.024-0.029-0.048
				C26.372,11.933,26.379,11.946,26.378,11.951z"/>
			<polygon id="XMLID_217_" style="fill:#FFFFFF;" points="28.437,15.992 28.523,15.943 28.429,15.951 			"/>
			<path id="XMLID_218_" style="fill:#FFFFFF;" d="M1.804,20.417c-0.015-0.015-0.04,0.012-0.074,0.048L1.804,20.417z"/>
			<path id="XMLID_219_" style="fill:#FFFFFF;" d="M33.589,16.14c-0.062,0.032-0.119,0.075-0.172,0.141
				C33.515,16.214,33.551,16.179,33.589,16.14z"/>
			<path id="XMLID_220_" style="fill:#FFFFFF;" d="M33.662,16.028c-0.024,0.004-0.026-0.001-0.036,0
				c0.038,0.009,0.028,0.049-0.037,0.113c0.143-0.075,0.299-0.09,0.45-0.239c0.153-0.063-0.161,0.184,0.175-0.012
				C34.455,15.675,33.912,15.903,33.662,16.028z"/>
			<path id="XMLID_221_" style="fill:#FFFFFF;" d="M1.549,16.065c-0.003,0.018-0.005,0.023-0.004,0.042
				c0.002-0.006,0.002-0.006,0.004-0.011C1.548,16.087,1.548,16.077,1.549,16.065z"/>
			<path id="XMLID_222_" style="fill:#FFFFFF;" d="M33.135,16.377c0.095-0.028,0.168-0.124,0.264-0.187
				c-0.032,0.009-0.151,0.043-0.156,0.063C33.207,16.3,33.234,16.314,33.135,16.377z"/>
			<path id="XMLID_223_" style="fill:#FFFFFF;" d="M34.642,15.128c-0.107-0.558-0.258-1.001-0.317-1.034
				C34.424,14.359,34.522,14.638,34.642,15.128z"/>
			<path id="XMLID_224_" style="fill:#FFFFFF;" d="M32.671,12.277c0.055-0.015,0.142-0.026,0.124-0.05
				C32.527,12.217,32.474,12.229,32.671,12.277z"/>
			<path id="XMLID_225_" style="fill:#FFFFFF;" d="M32.124,12.296c0.093,0.033,0.186,0.066,0.374,0.075
				C32.568,12.299,32.13,12.339,32.124,12.296z"/>
			<path id="XMLID_226_" style="fill:#FFFFFF;" d="M32.364,9.709c-0.017,0.082,0.077-0.061,0.195-0.235
				c0.077-0.177-0.217-0.372-0.215-0.466c0.026,0.088,0.11,0.209,0.198,0.34C32.58,9.48,32.395,9.622,32.364,9.709z"/>
			<path id="XMLID_227_" style="fill:#FFFFFF;" d="M30.743,7.023c0.096,0.095,0.129,0.14,0.204,0.234l-0.041-0.138
				C30.78,6.976,30.611,6.835,30.743,7.023z"/>
			<polygon id="XMLID_228_" style="fill:#FFFFFF;" points="4.469,8.293 4.286,8.6 4.46,8.377 			"/>
			<path id="XMLID_229_" style="fill:#FFFFFF;" d="M1.956,22.169c-0.004-0.046,0.087,0.012-0.01-0.231
				C2.032,22.232,1.892,21.946,1.956,22.169z"/>
			<path id="XMLID_230_" style="fill:#FFFFFF;" d="M33.579,22.965c-0.018,0.018-0.035,0.006-0.059,0.022l0.062,0.517
				C33.769,23.34,33.46,23.077,33.579,22.965z"/>
			<path id="XMLID_231_" style="fill:#FFFFFF;" d="M33.638,22.839c0.099-0.164,0.024-0.266-0.005-0.312
				C33.694,22.609,33.519,22.848,33.638,22.839z"/>
			<path id="XMLID_232_" style="fill:#FFFFFF;" d="M32.234,24.475l0.058-0.086C32.268,24.39,32.25,24.443,32.234,24.475z"/>
			<path id="XMLID_233_" style="fill:#FFFFFF;" d="M26.022,34.219c-0.061-0.032-0.138-0.081-0.212-0.126l-0.358-0.81
				c-0.1,0.071-0.113,0.185-0.011,0.36c-0.162,0.042-0.24-0.209-0.376-0.29c0.01,0.288-0.177,0.077-0.298,0.198
				c0.108,0.283,0.359,0.319,0.448,0.629c-0.045,0.003-0.111,0.038-0.144,0.098c0.104,0.131,0.235,0.306,0.355,0.491
				c0.209-0.041,0.412-0.098,0.616-0.15l-0.045-0.103C26.001,34.42,25.968,34.29,26.022,34.219z"/>
			<path id="XMLID_234_" style="fill:#FFFFFF;" d="M19.59,35h0.139C19.665,34.983,19.618,34.982,19.59,35z"/>
			<path id="XMLID_235_" style="fill:#FFFFFF;" d="M28.394,33.75c0.036-0.018,0.072-0.034,0.108-0.052
				c-0.002-0.018-0.008-0.04-0.009-0.056C28.449,33.671,28.419,33.708,28.394,33.75z"/>
			<path id="XMLID_236_" style="fill:#FFFFFF;" d="M28.926,32.444c0.263,0.19-0.355,0.84-0.161,1.02
				c0.166-0.473,0.527-0.769,0.652-0.61l0.105-0.552C29.47,32.085,29.163,32.225,28.926,32.444z"/>
			<polygon id="XMLID_237_" style="fill:#FFFFFF;" points="30.888,28.947 31.033,28.914 30.853,28.914 			"/>
			<path id="XMLID_238_" style="fill:#FFFFFF;" d="M31.973,26.131c0.031-0.042,0.052-0.1,0.067-0.196
				C32.002,25.964,31.984,26.035,31.973,26.131z"/>
			<path id="XMLID_239_" style="fill:#FFFFFF;" d="M31.773,25.737l-0.2,0.124c-0.004,0.073-0.071,0.294,0,0.312L31.773,25.737z"/>
			<path id="XMLID_240_" style="fill:#FFFFFF;" d="M23.176,3.191l-0.514-0.131l0.3,0.178C22.98,3.169,23.107,3.178,23.176,3.191z"/>
			<path id="XMLID_241_" style="fill:#FFFFFF;" d="M21.378,2.772c-0.366-0.188-0.443,0.172-0.863,0.084
				c-0.082-0.225-0.592-0.178-0.955-0.357l0.001-0.004l-0.013,0l0.011,0.004c0.021,0.086-0.008,0.168-0.119,0.204
				c0.694,0.224,1.034,0.189,1.747,0.632C21.636,3.272,21.149,2.891,21.378,2.772z"/>
			<path id="XMLID_242_" style="fill:#FFFFFF;" d="M6.624,3.641c-0.03,0.074-0.059,0.156-0.09,0.269
				C6.552,4.023,6.568,3.865,6.624,3.641z"/>
			<polygon id="XMLID_243_" style="fill:#FFFFFF;" points="20.197,2.166 19.949,2.067 19.96,2.174 			"/>
			<path id="XMLID_244_" style="fill:#FFFFFF;" d="M2.972,29.662c0,0.001,0.001,0.001,0.001,0.001
				c0.087,0.051,0.264,0.148,0.459,0.178C3.325,29.752,3.086,29.647,2.972,29.662z"/>
			<polygon id="XMLID_245_" style="fill:#FFFFFF;" points="3.261,29.637 3.506,29.744 3.316,29.61 			"/>
			<path id="XMLID_246_" style="fill:#FFFFFF;" d="M19.415,34.837c-0.205-0.029-0.42-0.204-0.488-0.107
				c0.019,0.036-0.011,0.105,0.131,0.125l-0.33,0.093c0.054,0.029,0.117,0.042,0.18,0.052h0.27
				C19.318,34.972,19.424,34.908,19.415,34.837z"/>
			<path id="XMLID_247_" style="fill:#FFFFFF;" d="M10.628,15.349c0.31,0.214-0.085,0.247-0.147,0.326
				c-0.12-0.131-0.425-0.072-0.305-0.219l0.296-0.09c-0.718-0.36-1.756-0.689-2.645-0.925l0.37,0.141
				c-0.086,0.112-0.268,0.06-0.428,0.066l0.076,0.38c-0.103-0.067-0.221-0.052-0.169-0.161c-0.185,0.088-0.146,0.186-0.109,0.322
				c-0.302-0.045-0.299-0.184-0.585-0.057c0.37,0.421,0.464-0.071,0.911,0.339l0.299-0.37c0.199,0.123-0.116,0.146,0.053,0.308
				c0.265-0.062-0.153-0.37,0.13-0.496c0.095,0.166,0.383,0.038,0.467,0.061c-0.134,0.084-0.176,0.362-0.154,0.432
				c0.108-0.043,0.254,0.148,0.391,0.206c-0.287-0.285,0.331,0.012,0.078-0.278c0.075-0.146,0.449-0.146,0.538,0.022
				c-0.053,0.108-0.151,0.043-0.238,0.016c-0.152,0.185,0.184,0.191,0.159,0.404c0.439-0.175,1.498,0.221,1.36-0.354
				C10.896,15.294,10.754,15.374,10.628,15.349z"/>
			<polygon id="XMLID_248_" style="fill:#FFFFFF;" points="7.283,14.796 7.085,14.81 7.117,14.911 			"/>
			<path id="XMLID_251_" style="fill:#FFFFFF;" d="M7.534,14.292c-0.017,0.066-0.094,0.069-0.116,0.144
				C7.619,14.558,7.628,14.455,7.534,14.292z"/>
			<path id="XMLID_252_" style="fill:#FFFFFF;" d="M10.038,15.814c-0.021,0.068-0.097,0.079-0.138,0.076l0.296,0.048L10.038,15.814z
				"/>
			<path id="XMLID_253_" style="fill:#FFFFFF;" d="M12.143,15.779c-0.397-0.109-0.611-0.021-0.994-0.335
				c-0.287,0.128-0.039,0.419-0.197,0.569c0.206,0.123,0.3-0.231,0.547-0.217c0.024,0.204,0.346,0.082,0.543,0.197
				C12.041,15.91,12.071,15.826,12.143,15.779z"/>
			<polygon id="XMLID_254_" style="fill:#FFFFFF;" points="12.045,15.992 12.042,15.991 12.041,15.994 			"/>
			<polygon id="XMLID_255_" style="fill:#FFFFFF;" points="11.745,16.465 11.753,16.366 11.605,16.415 			"/>
			<path id="XMLID_256_" style="fill:#FFFFFF;" d="M32.386,23.698c-0.083-0.002-0.157-0.028-0.211-0.105l0.185,0.266L32.386,23.698z
				"/>
			<path id="XMLID_257_" style="fill:#FFFFFF;" d="M32.391,23.654l-0.005,0.044c0.055,0.004,0.113-0.006,0.164-0.024
				C32.504,23.651,32.449,23.641,32.391,23.654z"/>
			<path id="XMLID_258_" style="fill:#FFFFFF;" d="M15.393,25.018c-0.13,0.081-0.047,0.214-0.072,0.347
				c0.217-0.312,0.253,0.086,0.331,0.146c-0.135,0.117-0.069,0.422-0.216,0.304l-0.097-0.297c-0.356,0.708-0.682,1.732-0.913,2.609
				l0.139-0.366c0.112,0.09,0.062,0.267,0.071,0.422l0.38-0.068c-0.057,0.097-0.048,0.219-0.153,0.17
				c0.083,0.178,0.185,0.143,0.318,0.103c-0.035,0.297-0.179,0.296-0.047,0.584c0.421-0.368-0.074-0.463,0.329-0.912l-0.374-0.292
				c0.121-0.198,0.151,0.121,0.311-0.05c-0.06-0.262-0.373,0.147-0.501-0.139c0.168-0.086,0.036-0.372,0.063-0.459
				c0.085,0.137,0.367,0.176,0.438,0.161c-0.048-0.111,0.145-0.25,0.207-0.385c-0.286,0.284,0.001-0.326-0.285-0.077
				c-0.148-0.08-0.152-0.45,0.016-0.534c0.108,0.048,0.047,0.148,0.022,0.238c0.189,0.146,0.195-0.178,0.403-0.163
				C15.582,25.931,15.976,24.885,15.393,25.018z"/>
			<polygon id="XMLID_259_" style="fill:#FFFFFF;" points="14.806,28.861 14.912,28.834 14.795,28.662 			"/>
			<path id="XMLID_260_" style="fill:#FFFFFF;" d="M14.276,28.409c0.074,0.018,0.079,0.097,0.156,0.116
				C14.552,28.331,14.447,28.319,14.276,28.409z"/>
			<path id="XMLID_261_" style="fill:#FFFFFF;" d="M15.878,26.087l0.043-0.299l-0.12,0.161
				C15.873,25.968,15.877,26.041,15.878,26.087z"/>
			<path id="XMLID_262_" style="fill:#FFFFFF;" d="M15.964,23.967C15.964,23.967,15.964,23.967,15.964,23.967L15.964,23.967
				l-0.001-0.006l-0.002,0.005c-0.087-0.001-0.169-0.031-0.218-0.102c-0.103,0.392-0.013,0.611-0.325,0.984
				c0.129,0.284,0.423,0.035,0.572,0.195c0.123-0.197-0.237-0.298-0.223-0.539C15.976,24.483,15.843,24.166,15.964,23.967z"/>
			<path id="XMLID_263_" style="fill:#FFFFFF;" d="M19.494,15.003c0.014-0.038,0.029-0.088,0.04-0.153
				C19.498,14.782,19.508,14.877,19.494,15.003z"/>
			<polygon id="XMLID_264_" style="fill:#FFFFFF;" points="16.387,24.401 16.447,24.264 16.338,24.255 			"/>
			<path id="XMLID_265_" style="fill:#FFFFFF;" d="M23.463,4.113l0.272-0.176l-0.169-0.029C23.572,3.991,23.546,4.066,23.463,4.113z
				"/>
			<path id="XMLID_266_" style="fill:#FFFFFF;" d="M23.53,3.901l0.036,0.006c0.007-0.054-0.003-0.11-0.016-0.169
				C23.528,3.791,23.516,3.848,23.53,3.901z"/>
			<path id="XMLID_267_" style="fill:#FFFFFF;" d="M26.021,34.216c0.055,0.03,0.1,0.051,0.134,0.06
				c-0.03-0.023-0.06-0.052-0.068-0.11C26.057,34.178,26.032,34.194,26.021,34.216z"/>
			<path id="XMLID_268_" style="fill:#FFFFFF;" d="M25.452,33.284l0.028-0.019C25.45,33.239,25.449,33.251,25.452,33.284z"/>
			<polygon id="XMLID_269_" style="fill:#FFFFFF;" points="25.623,33.484 25.888,33.809 25.718,33.564 			"/>
			<path id="XMLID_270_" style="fill:#FFFFFF;" d="M20.547,24.892c-0.04,0.152,0.114,0.195,0.188,0.305
				c-0.058-0.375,0.241-0.11,0.338-0.115c-0.01,0.173,0.24,0.356,0.055,0.371l-0.275-0.151c0.233,0.758,0.701,1.735,1.142,2.529
				l-0.151-0.361c0.145-0.012,0.229,0.157,0.347,0.26l0.231-0.305c0.015,0.116,0.11,0.192-0.001,0.232
				c0.186,0.069,0.231-0.022,0.307-0.144c0.171,0.243,0.079,0.342,0.364,0.461c0.053-0.551-0.373-0.284-0.385-0.889l-0.469,0.042
				c-0.054-0.228,0.184-0.015,0.181-0.251c-0.223-0.155-0.156,0.362-0.451,0.242c0.062-0.176-0.233-0.303-0.277-0.379
				c0.156,0.04,0.386-0.123,0.423-0.181c-0.108-0.05-0.061-0.283-0.11-0.425c-0.014,0.403-0.229-0.239-0.265,0.14
				c-0.163,0.039-0.414-0.229-0.354-0.405c0.111-0.034,0.137,0.072,0.18,0.158c0.231-0.022,0.014-0.261,0.18-0.391
				C21.316,25.439,20.882,24.405,20.547,24.892z"/>
			<polygon id="XMLID_271_" style="fill:#FFFFFF;" points="22.787,28.12 22.837,28.024 22.634,27.986 			"/>
			<path id="XMLID_272_" style="fill:#FFFFFF;" d="M22.087,28.146c0.069-0.033,0.125,0.018,0.192-0.018
				C22.231,27.906,22.147,27.969,22.087,28.146z"/>
			<path id="XMLID_273_" style="fill:#FFFFFF;" d="M21.489,25.309c0.062-0.035,0.121,0.018,0.151,0.042l-0.174-0.243L21.489,25.309z
				"/>
			<path id="XMLID_274_" style="fill:#FFFFFF;" d="M21,24.514c-0.045-0.232-0.379-0.059-0.536-0.247
				c0.134-0.151-0.184-0.3-0.231-0.52c-0.057,0.056-0.146,0.091-0.23,0.073c0.197,0.353,0.414,0.451,0.441,0.939
				C20.741,24.877,20.781,24.504,21,24.514z"/>
			<path id="XMLID_277_" style="fill:#FFFFFF;" d="M20.143,23.573l-0.014-0.287c0.252,0.098,0.229,0.333,0.104,0.456
				c0.373,0.28,0.257-0.371,0.399-0.528c-0.614-0.355,0.135-0.68-0.248-1.107c-0.256-0.256-0.17,0.116-0.287,0.141
				c-0.075-0.17-0.291-0.286-0.263-0.451c0.116-0.031,0.198,0.052,0.219,0.171c0.213-0.171-0.123-0.171-0.042-0.429
				c-0.021,0.026-0.034,0.115-0.108,0.086c-0.145-0.486-0.312-0.174-0.439-0.823c-0.106-0.064-0.143-0.145-0.298-0.062
				c0.054-0.43,0.129-0.256,0.131-0.735c-0.092,0.053-0.25,0.282-0.454,0.363c0.028-0.698-0.306-0.565-0.251-1.028
				c0.029,0.04,0.103,0.067,0.116,0.174c0.267-0.168-0.184-0.282-0.22-0.511l0.251-0.082c0,0-0.001-0.001-0.001-0.001
				c0.044,0.009,0.091,0.024,0.134,0.03l0.171,0.235c0.656,0.017-0.547-0.295,0.012-0.513c-0.094,0.484,0.357-0.04,0.627,0.257
				c0.09,0.234-0.376-0.027-0.27,0.246c0.155-0.21,0.199-0.006,0.4-0.01c-0.113,0.204,0.358,0.159,0.166,0.37l0.769-0.192
				c0.052,0.164,0.248,0.211,0.389,0.225c0,0,0,0,0,0c0.038,0.016,0.086,0.031,0.152,0.039c0.072-0.028-0.022-0.023-0.153-0.039
				c-0.336-0.121,0.212-0.298-0.131-0.53c-0.592-0.091-1.534-0.344-2.181-0.704c-0.069,0.101-0.148,0.105-0.229,0.081
				c0.074-0.424,0.254-0.828,0.295-1.176l0.238-0.172c0.009-0.649-0.286,0.542-0.519-0.014c0.489,0.099-0.047-0.351,0.253-0.617
				c0.243-0.088-0.018,0.368,0.251,0.273c-0.211-0.161-0.012-0.202-0.012-0.401c0.21,0.115,0.16-0.357,0.375-0.157l-0.197-0.766
				c0.163-0.053,0.207-0.238,0.219-0.381c-0.121,0.332-0.298-0.213-0.535,0.125c-0.087,0.579-0.332,1.515-0.692,2.153
				c0.242,0.156-0.05,0.367,0.002,0.548c-0.224-0.35-0.375-0.739-0.574-1.014l0.047-0.288c-0.433-0.479,0.167,0.599-0.378,0.341
				c0.418-0.256-0.276-0.226-0.242-0.624c0.107-0.226,0.24,0.288,0.364,0.025c-0.26,0.032-0.141-0.141-0.28-0.28
				c0.232-0.055-0.137-0.374,0.161-0.369l-0.675-0.429c0.079-0.151-0.017-0.319-0.102-0.432c-0.018-0.036-0.043-0.083-0.077-0.134
				c-0.074-0.031-0.002,0.034,0.077,0.134c0.136,0.324-0.368,0.05-0.303,0.453c0.343,0.487,0.811,1.342,0.99,2.053
				c0.329-0.057,0.19,0.424,0.472,0.43c-0.087,0.056-0.144,0.138-0.23,0.196c0.087,0.136,0.127,0.154,0.149,0.126
				c-0.004,0.045-0.015,0.099-0.101,0.143l-0.089-0.412c-1.029-0.251-2.423-0.488-3.486-1.083l0.012,0.242
				c-0.467-0.299-1.022,0.157-1.311-0.45l-0.217,0.123c0.118-0.067,0.02-0.343,0.205-0.44c-0.165,0.022-0.286-0.106-0.454-0.097
				l0.223,0.191c-0.239,0.117-0.399-0.067-0.406-0.24c-0.456,0.08,0.101,0.441,0.123,0.647c0.671-0.196,0.405,0.571,0.979,0.588
				c0.362-0.009,0.037-0.205,0.092-0.31c0.176,0.068,0.403-0.004,0.511,0.129c-0.059,0.1-0.179,0.101-0.272,0.04
				c-0.022,0.273,0.205,0.029,0.341,0.262c-0.011-0.034-0.061-0.099,0.014-0.132c0.454,0.221,0.338-0.11,0.899,0.252
				c0.12-0.04,0.205-0.01,0.252-0.181c0.272,0.336,0.099,0.275,0.454,0.605c0.017-0.101-0.037-0.375,0.034-0.576
				c0.495,0.501,0.629,0.174,0.927,0.524c-0.048-0.002-0.114,0.035-0.207-0.032c-0.056,0.307,0.336,0.064,0.526,0.196l-0.105,0.237
				c0.205,0.03,0.603-0.011,0.78,0.256l-0.098,0.108c0.131-0.003,0.261,0.012,0.39,0.035c-0.24,1.012-0.475,2.364-1.058,3.397
				l0.246-0.007c-0.298,0.463,0.171,1.007-0.44,1.295l0.127,0.214c-0.075-0.116-0.349-0.022-0.449-0.205
				c0.022,0.162-0.106,0.275-0.095,0.441l0.19-0.215c0.117,0.248-0.063,0.397-0.237,0.398c0.081,0.455,0.441-0.092,0.656-0.113
				c-0.208-0.67,0.568-0.394,0.584-0.963c-0.014-0.358-0.212-0.035-0.315-0.094c0.066-0.174-0.013-0.4,0.119-0.508
				c0.107,0.062,0.11,0.179,0.044,0.27c0.278,0.026,0.029-0.204,0.266-0.329c-0.031,0.007-0.099,0.056-0.138-0.017
				c0.229-0.445-0.112-0.336,0.248-0.896c-0.039-0.11-0.007-0.199-0.18-0.243c0.337-0.269,0.275-0.095,0.61-0.444
				c-0.109-0.021-0.382,0.032-0.589-0.044c0.502-0.479,0.171-0.614,0.529-0.913c-0.009,0.052,0.029,0.117-0.038,0.212
				c0.312,0.05,0.06-0.337,0.196-0.525l0.241,0.11c0.004-0.029,0.005-0.069,0.007-0.104c0.456,0.767,0.95,1.641,1.178,2.513
				l0.168-0.168c0.104,0.543,0.819,0.627,0.573,1.252l0.244,0.072c-0.137-0.036-0.268,0.219-0.464,0.152
				C20.03,23.284,20.02,23.46,20.143,23.573z M17.691,17.959c0.016-0.085,0.021-0.21,0.098-0.18c0.044,0.062,0.05,0.13,0.043,0.195
				C17.74,17.94,17.705,17.941,17.691,17.959z M18.317,17.913c-0.01-0.014-0.015-0.03-0.025-0.044
				c0.009,0.015,0.015,0.03,0.031,0.044C18.321,17.913,18.319,17.914,18.317,17.913z"/>
			<polygon id="XMLID_279_" style="fill:#FFFFFF;" points="20.704,23.697 20.844,23.778 20.791,23.633 			"/>
			<path id="XMLID_280_" style="fill:#FFFFFF;" d="M11.925,4.064l0.078-0.31l-0.14,0.09C11.917,3.903,11.951,3.975,11.925,4.064z"/>
			<path id="XMLID_281_" style="fill:#FFFFFF;" d="M11.827,3.866l0.034-0.022c-0.036-0.043-0.082-0.078-0.136-0.109
				C11.749,3.791,11.777,3.839,11.827,3.866z"/>
		</g>
	</g>
</g>
<g id="Layer_3">
	<path id="XMLID_2_" style="fill:#FFFFFF;" d="M19.596,5.722c-0.003,0.01-0.017,0.014-0.034,0.014c-0.028,0-0.07-0.008-0.114-0.008
		c-0.078,0-0.168,0.024-0.203,0.178C19.141,6.088,19.015,6.3,19.026,6.3h0.002c0,0.015,0.005,0.019,0.008,0.019
		c0.021,0,0.093-0.21,0.116-0.21c0.001,0,0.005,0.003,0.005,0.01c-0.172,0.346-0.091,0.392-0.314,0.728
		c0.022-0.063,0.015-0.081,0-0.081c-0.022,0-0.07,0.045-0.087,0.045c-0.009,0-0.01-0.004-0.009-0.019
		c-0.106,0.148,0.03,0.081-0.119,0.291l-0.015-0.036c-0.119,0.218-0.085,0.176-0.19,0.185c-0.052-0.007-0.13-0.009-0.219-0.009
		c-0.205,0-0.454,0.014-0.488,0.024c-0.006,0.008-0.014,0.013-0.023,0.013c-0.104,0-0.404-0.602-0.635-0.853
		c0-0.059-0.079-0.232-0.187-0.457c-0.036-0.048-0.049-0.144-0.105-0.16L16.564,5.81l-0.481,0.045
		c0.035-0.003,0.065-0.005,0.087-0.005c0.144,0-0.11,0.066-0.19,0.087l-0.243-0.021c-0.151,0.004-0.309,0.056-0.467,0.104
		l-0.572,0.202c-0.014,0-0.028,0-0.041,0c-0.046,0-0.075-0.006-0.102-0.01c-0.18,0.286-0.039,0.417-0.063,0.539
		c-0.024,0.094-0.046,0.122-0.065,0.184l0.041,0.037c-0.001,0.239-0.041,0.544-0.107,0.544c-0.006,0-0.008-0.002-0.011-0.005
		c0.001,0.068,0.003,0.132,0.014,0.132c0.006,0,0.015-0.013,0.025-0.05c0-0.001,0-0.004,0.002-0.006
		c-0.002,0.002-0.002,0.005-0.002,0.006c-0.018,0.062-0.035,0.155-0.051,0.242C14.32,7.871,14.338,7.931,14.3,7.957
		c-0.018,0.008-0.368,0.131-0.562,0.24c0.093-0.031,0.14-0.044,0.171-0.044c0.037,0,0.043,0.019,0.062,0.038
		c-0.029,0.096-0.101,0.03-0.248,0.144c-0.005-0.005-0.023-0.009-0.041-0.009c-0.009,0-0.015,0-0.022,0
		c-0.045,0-0.076-0.003,0.039-0.067c-0.095,0.022-0.144,0.036-0.182,0.036c-0.074,0-0.101-0.064-0.369-0.27l-0.459-0.352L12.39,7.44
		l-0.178-0.142c-0.03-0.023-0.061-0.053-0.089-0.069l-0.091,0.054c-0.192,0.125-0.13,0.104-0.218,0.183
		c-0.652,0.298-0.837,0.519-1.572,1.037c0.03-0.015,0.052-0.022,0.065-0.022c0.028,0,0.028,0.023,0.002,0.065
		c0.051,0.093,0.122,0.243,0.175,0.423c0.157,0.311-0.052,0.152-0.004,0.44c0.066,0.124,0.149,0.375,0.175,0.484l-0.011-0.006
		l0.103,0.221l0.028,0.093c-0.024,0.023-0.052,0.039-0.078,0.055l0.007-0.015c-0.038,0.027-0.227,0.15-0.352,0.283
		c-0.005,0.047-0.098,0.155-0.175,0.244c-0.043,0.053-0.089,0.107-0.101,0.157c-0.014-0.01,0.001-0.01-0.025-0.033l0.004,0.056
		l-0.233-0.097c0.01,0,0.016,0,0.025,0c0.064,0,0.079-0.017,0.118-0.019c-0.069-0.031-0.106-0.041-0.128-0.041
		c-0.043,0-0.027,0.043-0.105,0.043c-0.013,0-0.022,0-0.037-0.002c-0.26-0.04-0.232-0.083-0.347-0.136
		c0.111,0.002,0.18,0.065,0.247,0.072c0.003,0,0.009,0,0.012,0c0.122,0-0.157-0.058-0.156-0.089
		c-0.01-0.005-0.016-0.005-0.023-0.005c-0.022,0-0.047,0.012-0.088,0.012c-0.037,0-0.089-0.009-0.161-0.035l-0.343-0.106
		c-0.153-0.05-0.274-0.093-0.245-0.114c-0.039-0.021-0.073-0.032-0.105-0.032c-0.162,0-0.226,0.24-0.301,0.33l0.208-0.236
		c0.016-0.011,0.034-0.017,0.053-0.017c0.041,0,0.087,0.027,0.118,0.049c0.012,0.006,0.022,0.011,0.036,0.022
		c-0.004,0-0.017-0.012-0.036-0.022c-0.019-0.011-0.039-0.015-0.055-0.015c-0.143,0-0.229,0.262-0.278,0.262
		c-0.001,0-0.004,0-0.004,0l0.069-0.115c-0.066,0.1-0.259,0.342-0.224,0.342c0.005,0,0.023-0.011,0.055-0.032l-0.211,0.171
		c-0.022,0.103-0.17,0.315-0.271,0.494c-0.033-0.002-0.03-0.071-0.061-0.071c-0.026,0-0.078,0.052-0.201,0.238l-0.18,0.417
		c0.061,0.173,0.143,0.236,0.109,0.236c-0.005,0-0.014,0-0.023-0.003l0.19,0.242L7.587,12.8c0.07,0.068,0.129,0.112,0.187,0.15
		c0.117,0.089,0.219,0.16,0.347,0.36c-0.048-0.029-0.073-0.043-0.087-0.043c-0.041,0,0.044,0.116,0.118,0.224
		c0.001,0,0.006,0,0.011,0c0.013,0,0.033,0.005,0.057,0.031c-0.002-0.052-0.063-0.002-0.139-0.17
		c0.002-0.009,0.002-0.012,0.007-0.012c0.033,0,0.145,0.149,0.173,0.168c0,0.032,0.021,0.064,0.013,0.097l-0.078,0.11
		c-0.04,0.071-0.156,0.294-0.212,0.461c-0.1,0.216-0.066,0.289-0.163,0.322l-0.435,0.023c0.056,0.075-0.299,0.061-0.437,0.103
		c0.01-0.02-0.006-0.027-0.043-0.027c-0.037,0-0.095,0.008-0.158,0.02c-0.114,0.019-0.335,0.056-0.481,0.056
		c-0.017,0-0.032,0-0.045-0.002l0.195,0.062l-0.208,0.015c-0.035,0.037-0.033,0.11-0.051,0.163l-0.043,0.316
		c-0.026,0.195-0.024,0.301-0.106,0.427c-0.02,0.056-0.033,0.08-0.039,0.08c-0.021,0-0.002-0.2,0.004-0.275
		c-0.171,0.316-0.086,0.823-0.247,1.254c0.002,0.001,0.008,0.002,0.008,0.002c0.015,0,0.028-0.013,0.046-0.013
		c0.001,0,0.004,0.001,0.006,0.002c0.014,0.009,0.024,0.02,0.027,0.056l0.005,0.068l0.117,0.046c0.263,0.19,0.614,0.428,0.576,0.428
		l0,0c0.171,0.073,0.229,0.073,0.394,0.2c-0.005,0.001-0.007,0.001-0.013,0.001c-0.032,0-0.101-0.034-0.157-0.054
		c0.127,0.077,0.295,0.167,0.371,0.2c0.058,0.029,0.184,0.029,0.164,0.125c-0.022,0.025-0.036,0.067-0.041,0.109l-0.024,0.303
		l0.007,0.342c0,0.046-0.003,0.103-0.01,0.138c0.015,0.057-0.07,0.08-0.143,0.117c-0.112,0.056-0.203,0.105-0.197,0.156
		c0.003,0.002,0.003,0.002,0.003,0.004c0,0,0-0.002-0.003-0.004c0-0.002-0.006-0.002-0.013-0.002c-0.016,0-0.039,0.004-0.055,0.006
		c-0.11,0.092-0.175,0.202-0.327,0.292l0.017-0.084c0-0.013-0.009-0.017-0.023-0.017c-0.037,0-0.12,0.043-0.21,0.094
		c-0.099,0.056-0.279,0.162-0.354,0.188c0.02-0.003,0.028-0.007,0.033-0.007c0.042,0-0.339,0.153-0.164,0.246l0.058,0.275
		c0.078,0.417,0.04,0.074,0.124,0.49c0.016,0.095,0.012,0.128-0.003,0.128c-0.024,0-0.065-0.066-0.067-0.113
		c0.007,0.219,0.06,0.373,0.125,0.588c-0.013-0.046-0.017-0.07-0.013-0.07c0.003,0,0.009,0.01,0.023,0.037
		c-0.011,0-0.006,0.029-0.004,0.057c0.025,0.079,0.051,0.172,0.078,0.276v-0.002c-0.002,0,0,0.009-0.002,0.009l0,0
		c-0.03-0.111-0.059-0.209-0.076-0.274c0.007,0.07,0.038,0.184,0.069,0.308c0.003,0.005,0.003,0.012,0.004,0.02
		c0.025,0.098,0.047,0.196,0.054,0.259L6.08,21.607c-0.03,0.13,0.123,0.149,0.279,0.149c0.04,0,0.076,0,0.113-0.003
		c0.029,0.003,0.057,0.003,0.084,0.003c0.137,0,0.207-0.008,0.195-0.018c0.279,0.055,0.797,0.112,1.043,0.126
		c0.013-0.001,0.025-0.004,0.037-0.004c0.1,0,0.095,0.122,0.151,0.197c0.034,0.075,0.063,0.146,0.091,0.202
		c0.013,0.026,0.032,0.06,0.052,0.105c-0.014-0.024-0.03-0.062-0.052-0.105c-0.017-0.029-0.031-0.048-0.035-0.048
		c-0.004,0,0.002,0.018,0.024,0.048c0.08,0.174,0.225,0.372,0.191,0.376c0.033,0.057,0.035,0.082,0.038,0.115
		c0.013,0.035-0.005,0.067-0.071,0.126l0,0c-0.007,0,0.009,0.021,0.029,0.021c0.001,0,0.001,0,0.001,0
		c0.01-0.009,0.02-0.016,0.028-0.021c-0.008,0.015-0.018,0.018-0.028,0.021c-0.102,0.083-0.281,0.317-0.413,0.506
		c-0.15,0.206-0.315,0.443-0.583,0.753l0.072,0.126c0.01,0.014,0.017,0.027,0.018,0.035l-0.018-0.035
		c-0.026-0.036-0.072-0.088-0.118-0.13c0.005-0.022,0.014-0.041,0.02-0.055L7.19,24.154c0.353,0.548,0.555,0.833,0.844,1.125
		c-0.044-0.022-0.054,0-0.128-0.079c0.121,0.142,0.312,0.458,0.471,0.579c-0.035-0.065-0.041-0.094-0.025-0.094
		c0.013,0,0.043,0.023,0.075,0.056c0.018,0.024,0.039,0.035,0.066,0.035c0.084,0,0.21-0.089,0.287-0.089c0.004,0,0.006,0,0.011,0
		l0.004,0.005l0.614-0.207c0.018-0.003,0.033-0.005,0.043-0.005c0.078,0-0.188,0.067-0.116,0.074c0.013,0.008,0.033,0.01,0.062,0.01
		c0.177,0,0.615-0.148,0.634-0.148c0.003,0,0.003,0.002,0.003,0.002c0.03-0.031,0.06-0.039,0.083-0.039
		c0.012,0,0.023,0.001,0.027,0.001c0.007,0,0.012-0.001,0.012-0.004c0.151,0.126,0.027,0.104,0.125,0.196
		c0.188,0.132,0.38,0.245,0.58,0.359c0.004,0.009,0.011,0.013,0.016,0.017c-0.001,0-0.001,0-0.001,0
		c-0.022,0,0.033,0.096-0.009,0.096c-0.004,0-0.013-0.002-0.022-0.007c0.17,0.117,0.083,0.275,0.077,0.435l-0.011,0.135l-0.31,1.059
		c-0.003-0.009-0.008-0.012-0.013-0.012c-0.022,0-0.063,0.068-0.084,0.068c-0.009,0-0.011-0.013-0.011-0.05l-0.029,0.129
		l0.134,0.098l0.311,0.237l0.576,0.424c-0.042-0.048-0.046-0.067-0.026-0.067c0.067,0,0.424,0.233,0.51,0.233
		c0.011,0,0.015-0.002,0.018-0.004c0.042,0.022,0.078,0.049,0.119,0.071l0.11-0.086c0.018-0.009,0.037-0.015,0.046-0.015h0.004
		c0.016,0.004,0.02,0.019,0.038,0.019c0.012,0,0.031-0.008,0.067-0.028c0.373-0.341,0.776-0.635,1.073-0.886
		c0,0,0.005,0.011-0.008,0.033c0.006-0.002,0.013-0.002,0.017-0.002c0.145,0,0.373,0.146,0.621,0.226l0.369,0.124
		c0.053,0.02,0.12,0.03,0.168,0.052l0.033,0.122l0.006,0.026c-0.004,0-0.006,0-0.006,0c-0.004,0-0.007,0-0.011,0
		c-0.009,0-0.02-0.006-0.037-0.061c0.007,0.219,0.041,0.219,0.069,0.252l0.031,0.263l-0.034-0.068
		c0.074,0.306,0.034,0.603,0.13,0.946l0.002,0.02c-0.002,0.005-0.004,0.005-0.006,0.005c-0.017,0-0.032-0.069-0.048-0.115
		l0.039,0.27c0.011,0.086,0.157,0.055,0.228,0.093c0.106,0.023,0.194,0.029,0.289,0.042c0.063,0.011,0.123,0.03,0.188,0.043
		c-0.004,0.015-0.024,0.025-0.078,0.025c-0.018,0-0.037-0.002-0.061-0.004c0.134,0.044,0.22,0.05,0.296,0.05
		c0.038,0,0.071,0,0.111,0c0.066,0,0.139,0.006,0.244,0.035c0.077,0.017,0.206,0.067,0.196,0.073
		c0.019-0.002,0.043-0.002,0.069-0.002c0.082,0,0.194,0.008,0.303,0.024c0.005,0,0.009-0.008,0.014-0.008
		c0.018,0.002,0.034,0.008,0.051,0.011l0.06-0.11c0.007-0.012,0.016-0.022,0.021-0.035l0.101-0.181
		c0.042-0.041,0.1-0.115,0.19-0.236l0.297-0.54c0.102-0.126,0.123-0.352,0.277-0.352c0.024,0,0.052,0.004,0.082,0.015
		c0.123,0.008,0.28,0.017,0.433,0.017c0.06,0,0.122-0.002,0.179-0.006l0.294-0.013l0.142-0.009l0.069,0.119l0.595,1.057l0.16,0.282
		c0.011,0,0.022,0,0.03,0c0.088,0,0.19-0.027,0.284-0.044c0.164-0.025,0.321-0.062,0.478-0.1c0.048-0.008,0.098-0.014,0.143-0.02
		c0.227,0.033-0.375,0.119-0.2,0.142c-0.023-0.068,0.263-0.063,0.756-0.208l0.029,0.008c0.192-0.093,0.468,0.007,0.41-0.332
		l-0.018,0.003c-0.02-0.281,0.154-0.535,0.071-0.679l0.075-0.178c-0.051-0.25,0.053-0.361,0.033-0.6
		c-0.002-0.011-0.008-0.022-0.002-0.023c0.002,0.009,0.002,0.015,0.002,0.023c0.003,0.005,0.003,0.006,0.004,0.01
		c0.262-0.098,0.69-0.37,0.832-0.381c0.075-0.077,0.149-0.105,0.22-0.105c0.143,0,0.276,0.117,0.363,0.162l0.073,0.059
		c-0.011,0.008-0.023,0.013-0.043,0.013c-0.01,0-0.022-0.003-0.03-0.005c0.273,0.173,0.569,0.5,0.877,0.636l0.152,0.12
		c0.036-0.02,0.07-0.046,0.105-0.063c0.159-0.002,0.319-0.072,0.481-0.268c0.239-0.157,0.467-0.328,0.683-0.501
		c0.087-0.067,0.177-0.127,0.266-0.194l-0.48-1.629c0.028-0.037,0.061-0.073,0.09-0.109c0.282-0.255,0.557-0.519,0.81-0.807
		l1.645,0.48c0.383-0.483,0.727-0.993,1.027-1.531l-0.036-0.047l-0.384-0.506l-0.405-0.514l-0.191-0.237
		c-0.061-0.076,0.046-0.176,0.065-0.264c0.076-0.181,0.157-0.364,0.206-0.54l0.011-0.036c0.05-0.125,0.112-0.242,0.156-0.369
		l0.333-0.038c0.005,0.011,0.014,0.02,0.039,0.02c0.011,0,0.023-0.003,0.034-0.006c0.196-0.037,0.406-0.062,0.612-0.088l0.684-0.074
		c0.108-0.381,0.191-0.777,0.261-1.174c0.023-0.125,0.045-0.243,0.056-0.356c0.013-0.093,0.032-0.183,0.043-0.278l-1.505-0.822
		c0.012-0.214,0.03-0.42,0.03-0.635c0-0.219-0.019-0.426-0.03-0.64l0.508-0.279l-0.067,0.054c0.079-0.054,0.177-0.095,0.22-0.095
		c0.02,0,0.025,0.008,0.017,0.025l0.237-0.161l0.011,0.051c0.193-0.117,0.382-0.21,0.608-0.328c0.076-0.019,0.089-0.065,0.067-0.13
		l-0.027-0.179c-0.018-0.12-0.036-0.256-0.069-0.368l-0.021,0.193c-0.049-0.289-0.17-0.554-0.17-0.825
		c0.017,0.046,0.03,0.059,0.039,0.059c0.014,0,0.019-0.035,0.037-0.044c-0.023-0.063-0.056-0.125-0.067-0.212l0.09,0.086
		c-0.061-0.07-0.116-0.258-0.164-0.448c0.009-0.143-0.135-0.126-0.229-0.141c-0.091-0.014-0.168-0.022-0.21-0.022l0.057-0.012
		c-0.108-0.019-0.158-0.027-0.18-0.027c-0.059,0,0.116,0.06,0.01,0.06c-0.015,0-0.032-0.002-0.061-0.004
		c-0.246-0.041-0.083-0.104-0.305-0.164l-0.726-0.052c-0.122-0.081-0.183-0.429-0.27-0.662l-0.119-0.226
		c-0.024-0.059-0.098-0.121-0.031-0.176l0.273-0.42c0.07-0.093,0.102-0.114,0.116-0.114c0.014,0,0.018,0.017,0.025,0.017
		c0.011,0,0.033-0.022,0.101-0.13c0.001,0.028,0.016,0.034,0.039,0.034c0.017,0,0.041-0.004,0.061-0.008
		c-0.005-0.021,0.07-0.111,0.134-0.199c0.069-0.091,0.162-0.214,0.14-0.214c-0.01,0-0.034,0.019-0.086,0.064l0.162-0.198
		c0.065-0.068,0.134-0.13,0.054-0.206l-0.255-0.443c-0.139-0.226-0.292-0.452-0.45-0.657c-0.007-0.007-0.01-0.01-0.014-0.017
		c0.004,0.005,0.007,0.01,0.014,0.017c0.049,0.061,0.09,0.091,0.111,0.091c0.022,0,0.023-0.032-0.006-0.102
		c-0.079-0.07-0.235-0.239-0.399-0.434l-0.123-0.147l-0.21,0.063l-0.387,0.109c0.021,0.053,0.161,0.014,0.13,0.078
		c-0.058,0.03-0.156,0.084-0.259,0.109c-0.053-0.024-0.074-0.072-0.189-0.072c-0.063,0-0.149,0.014-0.283,0.052
		c0.075-0.12,0.658-0.182,0.456-0.217c0.035-0.029,0.109-0.065,0.197-0.103l0.485-0.161c0.029-0.004,0.072-0.029,0.103-0.029
		c0.01,0,0.015,0.002,0.023,0.006l0.077,0.104l0.138,0.19c0.085,0.117,0.147,0.214,0.173,0.267c0.058,0.054,0.086,0.076,0.096,0.076
		c0.012,0-0.021-0.045-0.058-0.101c-0.093-0.128-0.225-0.304-0.177-0.304h0.002l-0.216-0.266c-0.016-0.009-0.03-0.013-0.051-0.013
		c-0.078,0-0.184,0.07-0.271,0.091l-0.648,0.216c0.006,0.044,0.166,0-0.043,0.097c-0.204,0.106-0.354,0.13-0.458,0.13
		c-0.09,0-0.142-0.018-0.156-0.018l0,0c-0.006-0.009,0.111-0.045,0.163-0.07c-0.175,0.034-0.177,0.047-0.208,0.064
		c-0.011,0.014-0.025,0.02-0.038,0.02c-0.023,0-0.045-0.013-0.067-0.044c0.012-0.023,0.022-0.03,0.035-0.03
		c0.013,0,0.028,0.011,0.041,0.027c0.054-0.011,0.04-0.002,0.128-0.063c-0.008,0-0.015,0-0.021,0c-0.079,0-0.047-0.035-0.069-0.054
		c-0.015,0.006-0.02,0.011-0.034,0.034c-0.007,0.003-0.013,0.01-0.02,0.01h-0.003c0,0,0,0-0.003,0c0,0-0.018-0.017-0.107-0.119
		l0.068,0.018c-0.08-0.07-0.155-0.143-0.239-0.21c-0.027,0.026-0.023,0.108,0.17,0.306c-0.179-0.043-0.222-0.217-0.468-0.414
		c-0.005-0.001-0.012-0.001-0.015-0.001c-0.058,0,0.079,0.057,0.079,0.13c-0.003,0.005-0.01,0.007-0.016,0.007
		c-0.054,0-0.199-0.112-0.24-0.185c0.061-0.209,0.087-0.086,0.153-0.167c-0.006,0.063-0.022,0.138-0.056,0.14
		c0.028,0.024,0.05,0.033,0.069,0.033c0.043,0,0.052-0.064,0.09-0.064c0.005,0,0.014,0.003,0.023,0.009
		c0.041-0.058-0.042,0.004-0.018-0.15c-0.01,0.016-0.014,0.02-0.02,0.02c-0.017,0-0.023-0.043-0.043-0.043
		c-0.005,0-0.01,0.005-0.018,0.017c0.006-0.584,0.212-0.316,0.338-0.836c-0.007,0.002-0.013,0.004-0.018,0.004
		c-0.021,0-0.03-0.03-0.033-0.084l0.039-0.321C25.87,8.627,25.87,8.54,25.841,8.54c-0.021,0-0.049,0.045-0.106,0.149
		c0-0.035,0.028-0.079,0.013-0.113l-0.122-0.074c-0.076-0.052-0.146-0.1-0.207-0.149c0.022,0.004,0.035,0.008,0.043,0.008
		c0.062,0-0.1-0.128-0.054-0.128c0.015,0,0.049,0.015,0.116,0.047l-0.203-0.149c0.098,0.029,0.248,0.113,0.386,0.182
		c-0.277-0.27-0.513-0.485-0.6-0.587c-0.066-0.034-0.094-0.044-0.109-0.044c-0.026,0,0.009,0.04-0.013,0.04
		c-0.013,0-0.049-0.015-0.133-0.062c0.012,0.004,0.023,0.005,0.03,0.005c0.058,0-0.083-0.118-0.199-0.191
		c0.093,0.074,0.11,0.107,0.071,0.107c-0.047,0-0.197-0.061-0.364-0.145c-0.129-0.139-0.249-0.182-0.35-0.182
		c-0.161,0-0.27,0.102-0.287,0.102c-0.005,0-0.004-0.003,0.001-0.014c0.091-0.058,0.181-0.229,0.281-0.252
		c-0.063,0.002-0.087,0.058-0.115,0.058c-0.001,0-0.001-0.001-0.004-0.002c-0.037,0.019-0.077,0.033-0.231,0.169l-0.147,0.208
		c-0.032,0.056-0.047,0.106-0.063,0.149c-0.132,0.13-0.267,0.171-0.311,0.214l0.203-0.212c-0.113,0.1-0.158,0.117-0.189,0.117
		c-0.017,0-0.027-0.006-0.042-0.006c-0.029,0-0.076,0.018-0.193,0.125l-0.046,0.104c-0.031,0.022-0.056,0.033-0.072,0.033
		c-0.008,0-0.013-0.005-0.01-0.015c-0.021,0.028-0.058,0.064-0.099,0.104C22.687,8.16,22.688,8.163,22.68,8.18l-0.016-0.032
		c-0.005,0.024-0.016,0.047-0.042,0.052c0,0.002-0.004,0.002-0.007,0.002c-0.017,0-0.063-0.024-0.149-0.096
		c0.143,0.158,0.128,0.066,0.201,0.129c0.033,0.039,0.013,0.051-0.024,0.051c-0.032,0-0.078-0.009-0.094-0.022
		c0.06-0.073-0.393-0.188-0.587-0.256c-0.042-0.048-0.051-0.067-0.056-0.087c-0.023,0.011-0.05,0.024-0.065,0.029
		c0.052-0.056,0.042-0.07,0.022-0.106c-0.022-0.063-0.07-0.234-0.063-0.337c0.021,0.046,0.041,0.069,0.056,0.069
		c0.023,0,0.037-0.048,0.037-0.138c-0.009,0.037-0.023,0.054-0.032,0.054c-0.055,0-0.115-0.321-0.158-0.321
		c-0.003,0-0.006,0-0.008,0.004C21.692,7.051,21.7,7.01,21.716,7.01c0.032,0,0.089,0.143,0.126,0.143
		c0.007,0,0.015-0.009,0.02-0.024c-0.044-0.093-0.044-0.208-0.048-0.313c-0.009-0.167-0.027-0.363-0.079-0.448
		c0.007,0.156,0.005,0.212-0.004,0.212c-0.019,0-0.07-0.289-0.102-0.323c-0.241-0.071-0.229-0.076-0.183-0.076
		c0.008,0,0.022,0,0.032,0c0.043,0,0.071-0.007-0.08-0.062c-0.109-0.022-0.225-0.037-0.296-0.037c-0.097,0-0.113,0.025,0.067,0.087
		c-0.318-0.106-0.495-0.054-0.748-0.16c-0.02-0.014-0.007-0.021,0.017-0.021c0.072,0,0.26,0.043,0.311,0.043
		c0.018,0,0.02-0.005-0.008-0.022c-0.121-0.028-0.199-0.036-0.257-0.036c-0.145,0-0.145,0.065-0.325,0.065
		c-0.047,0-0.108-0.005-0.185-0.017c0.227,0.069-0.017,0.121-0.235,0.129c-0.545-0.106,0.225-0.004,0.01-0.106l-0.237-0.018
		c-0.082-0.009-0.075,0.01-0.069-0.072c0.027-0.033,0.125-0.025,0.221-0.035C19.863,5.91,20.103,5.91,19.9,5.842l-0.326-0.014
		C19.643,5.805,19.749,5.768,19.596,5.722L19.596,5.722z M18.227,24.639c-3.531,0-6.402-2.865-6.402-6.385
		c0-3.523,2.871-6.391,6.402-6.391c3.529,0,6.403,2.868,6.403,6.391C24.63,21.775,21.756,24.639,18.227,24.639L18.227,24.639z
		 M29.697,14.909l-0.092-0.011c0.009-0.002,0.015-0.003,0.022-0.005C29.661,14.895,29.673,14.904,29.697,14.909L29.697,14.909z
		 M30.108,16.767c-0.035,0.072-0.422,0.297-0.52,0.306c-0.003,0-0.005,0-0.005,0c-0.014,0-0.004-0.009-0.01-0.014l0.284-0.156
		c0.003,0.007-0.004,0.017,0.007,0.022c0.062-0.049,0.097-0.072,0.137-0.1L30.108,16.767L30.108,16.767z M6.349,21.66
		c-0.026,0-0.052-0.004-0.081-0.011c0.016,0,0.031,0.002,0.044,0.005C6.328,21.656,6.334,21.658,6.349,21.66L6.349,21.66z
		 M22.841,7.996c-0.01,0.012-0.017,0.022-0.018,0.03C22.831,8.014,22.837,8.006,22.841,7.996L22.841,7.996z M25.654,9.841
		c-0.021,0.064-0.033,0.111-0.037,0.148C25.626,9.962,25.638,9.919,25.654,9.841L25.654,9.841z M8.19,10.723l-0.006,0.005
		C8.188,10.727,8.19,10.724,8.19,10.723L8.19,10.723z M30.082,15.405c0.008,0.01,0.015,0.02,0.025,0.023L30.082,15.405
		L30.082,15.405z M29.111,17.329c-0.028,0.019-0.057,0.039-0.077,0.062L29.111,17.329L29.111,17.329z M5.899,19.404
		c-0.009,0.002-0.021,0.006-0.032,0.009l0,0C5.875,19.412,5.886,19.411,5.899,19.404L5.899,19.404z M10.793,25.998
		c0.023,0.013,0.037,0.021,0.049,0.028C10.829,26.018,10.814,26.006,10.793,25.998L10.793,25.998z M16.185,30.239
		c0,0-0.006,0-0.01,0c0.003,0,0.004,0,0.004,0C16.184,30.239,16.185,30.239,16.185,30.239L16.185,30.239z"/>
</g>
</svg>
