<?xml version="1.0" encoding="UTF-8"?><svg xmlns="http://www.w3.org/2000/svg" viewBox="0 0 16 16"><defs><style>.c{fill:#fff;}.d{fill:#468e51;}.e{fill:#59a869;}.f{fill:#499c54;}</style></defs><g id="a"><g><polygon class="f" points="14.34 4.01 14.34 11.37 7.97 15 7.97 7.71 14.34 4.01"/><polygon class="d" points="1.6 4.01 1.6 11.37 7.97 15 7.97 7.71 1.6 4.01"/><polygon class="e" points="14.34 4.01 7.97 1.02 1.6 4.01 7.97 7.71 14.34 4.01"/><g><path class="c" d="M12.43,6.4c.44-.26,.8-.05,.8,.46s-.36,1.14-.8,1.4c-.44,.25-.8,.05-.8-.46s.36-1.14,.8-1.4Z"/><path class="c" d="M9.88,7.96c.44-.26,.8-.05,.8,.46s-.36,1.14-.8,1.4c-.44,.25-.8,.05-.8-.46s.36-1.14,.8-1.4Z"/><path class="c" d="M12.43,9.21c.44-.26,.8-.05,.8,.46s-.36,1.14-.8,1.4c-.44,.25-.8,.05-.8-.46s.36-1.14,.8-1.4Z"/><path class="c" d="M9.88,10.77c.44-.26,.8-.05,.8,.46s-.36,1.14-.8,1.4c-.44,.25-.8,.05-.8-.46s.36-1.14,.8-1.4Z"/></g><g><path class="c" d="M4.79,8.68c-.39-.23-.71-.05-.71,.41s.32,1.02,.71,1.25c.39,.23,.71,.04,.71-.41s-.32-1.02-.71-1.25Z"/><g><path class="c" d="M5.93,7.58c-.39-.23-.71-.05-.71,.41s.32,1.02,.71,1.25c.39,.23,.71,.04,.71-.41s-.32-1.02-.71-1.25Z"/><path class="c" d="M3.64,9.77c-.39-.23-.71-.05-.71,.41s.32,1.02,.71,1.25c.39,.23,.71,.04,.71-.41s-.32-1.02-.71-1.25Z"/></g></g><path class="c" d="M8.73,2c.41,.23,.4,.62,0,.86-.41,.24-1.09,.24-1.5,0-.42-.24-.41-.63,0-.86,.42-.23,1.1-.23,1.5,0Z"/><path class="c" d="M8.73,5.16c.41,.23,.4,.62,0,.86-.41,.24-1.09,.24-1.5,0-.42-.24-.41-.63,0-.86,.42-.23,1.1-.23,1.5,0Z"/></g></g><g id="b"/></svg>