<?xml version="1.0" encoding="UTF-8"?>
<!-- Generator: Adobe Illustrator 28.1.0, SVG Export Plug-In . SVG Version: 6.00 Build 0)  -->
<svg version="1.1" id="Layer_1" xmlns="http://www.w3.org/2000/svg" xmlns:xlink="http://www.w3.org/1999/xlink" x="0px" y="0px" viewBox="0 0 64 64" style="enable-background:new 0 0 64 64;" xml:space="preserve">
<style type="text/css">
	.st0{fill:#958CC1;}
	.st1{fill:#674049;}
</style>
<g transform="translate(9.15 0.45)">
	<path class="st1" d="M23,22.9c1.8,0,3.5,0.5,4.9,1.5v0l1,0.7c5.2,3.2,11.1,4.3,16.8,3.3C44.1,17.3,34.5,8.9,23,8.9   C10.3,8.9,0,19.1,0,31.6S10.3,54.2,23,54.2c11.5,0,21.1-8.4,22.7-19.3c-5.8-1.1-11.8,0.1-17.1,3.5l-0.7,0.5v0   c-1.4,0.9-3.1,1.5-4.9,1.5c-4.9,0-8.8-3.9-8.8-8.7S18.1,22.9,23,22.9z"/>
</g>
</svg>