<?xml version="1.0" encoding="utf-8"?>
<svg version="1.1" id="Layer_1" xmlns="http://www.w3.org/2000/svg" xmlns:xlink="http://www.w3.org/1999/xlink" x="0px" y="0px"
	 viewBox="-289 412.9 16 16" style="enable-background:new -289 412.9 16 16;" xml:space="preserve">
<rect id="frame" x="-289" y="412.9" fill="none" width="16" height="16"/>
<g>
	<polygon fill="#C75450" points="-279.5,423.7 -282.3,420.9 -279.5,418 -280.9,416.6 -283.8,419.4 -286.6,416.6 -288,418 -285.2,420.9
		-288,423.7 -286.6,425.1 -283.8,422.3 -280.9,425.1 	"/>
</g>
<rect id="frame_1_" x="-289.6" y="412.9" fill="none" width="16" height="16"/>
<g>
	<path fill="#499C54" d="M-278.9,428.9v-6h2.7c0.8,0,1.3,0.2,1.7,0.6c0.3,0.3,0.6,0.8,0.6,1.3c0,1-0.7,1.6-1.5,1.8l1.6,2.3h-1.3l-1.5-2
		h-1.4v2L-278.9,428.9L-278.9,428.9z M-277.9,425.9h1.6c0.8,0,1.4-0.4,1.4-1l0,0c0-0.6-0.6-1-1.4-1h-1.6V425.9z"/>
</g>
</svg>
