<?xml version="1.0" encoding="utf-8"?>
<svg version="1.1" id="Layer_1" xmlns="http://www.w3.org/2000/svg" xmlns:xlink="http://www.w3.org/1999/xlink" x="0px" y="0px"
	 viewBox="-289 412.9 16 16" style="enable-background:new -289 412.9 16 16;" xml:space="preserve">
<rect id="frame" x="-289" y="412.9" fill="none" width="16" height="16"/>
<g>
	<path fill="#AFB1B3" d="M-282,421.9h-3l4-4l4,4h-3v5h-2V421.9z"/>
	<path fill="#AFB1B3" d="M-287,414.9h12v2h-12V414.9z"/>
</g>
<path fill="#499C54" d="M-277.6,428.5h1v-1h-1V428.5z M-277.1,422.5c-1.1,0-2,0.9-2,2h1c0-0.6,0.5-1,1-1c0.6,0,1,0.5,1,1
	c0,1-1.5,0.9-1.5,2.5h1c0-1.1,1.5-1.3,1.5-2.5C-275.1,423.4-276,422.5-277.1,422.5z"/>
</svg>
